<?xml version="1.0" encoding="iso-8859-1"?>
<!-- Generator: Adobe Illustrator 19.0.0, SVG Export Plug-In . SVG Version: 6.00 Build 0)  -->
<svg version="1.1" id="Capa_1" xmlns="http://www.w3.org/2000/svg" xmlns:xlink="http://www.w3.org/1999/xlink" x="0px" y="0px"
	 viewBox="0 0 512 512" style="enable-background:new 0 0 512 512;" xml:space="preserve">
<circle style="fill:#454545;" cx="317.751" cy="406.142" r="17.643"/>
<g>
	<path style="fill:#FFCBA8;" d="M220.714,241.886c8.416,3.37,17.396,5.108,26.465,5.116h17.643
		c9.069-0.009,18.049-1.747,26.465-5.116v23.112c0,19.487-15.799,35.286-35.286,35.286s-35.286-15.799-35.286-35.286V241.886z"/>
	<path style="fill:#FFCBA8;" d="M365.475,129.059c3.352,3.264,5.231,7.754,5.205,12.438c-0.026,9.73-7.913,17.617-17.643,17.643
		h-17.643v-35.286h17.643C357.721,123.827,362.211,125.706,365.475,129.059z"/>
	<path style="fill:#FFCBA8;" d="M286.875,141.497c7.304,0,13.232-5.928,13.232-13.232c0-7.304-5.928-13.232-13.232-13.232
		s-13.232,5.928-13.232,13.232C273.643,135.569,279.571,141.497,286.875,141.497z M225.125,141.497
		c7.304,0,13.232-5.928,13.232-13.232c0-7.304-5.928-13.232-13.232-13.232s-13.232,5.928-13.232,13.232
		C211.893,135.569,217.821,141.497,225.125,141.497z M335.394,159.14v8.822H176.606V79.746h158.787V159.14z"/>
	<path style="fill:#FFCBA8;" d="M176.606,123.854v35.286h-17.643c-9.712-0.071-17.572-7.931-17.643-17.643
		c0.026-9.73,7.913-17.617,17.643-17.643C158.963,123.854,176.606,123.854,176.606,123.854z"/>
</g>
<g>
	<path style="fill:#07B671;" d="M332.482,167.961h2.911v8.469c-0.009,28.767-17.449,54.649-44.108,65.456
		c-8.416,3.37-17.396,5.108-26.465,5.116h-17.643c-9.069-0.009-18.049-1.747-26.465-5.116
		c-26.659-10.806-44.099-36.689-44.108-65.456v-8.469H332.482z"/>
	<path style="fill:#07B671;" d="M335.394,52.929v26.817H176.606V52.929C176.606,23.695,200.301,0,229.536,0h52.929
		C311.699,0,335.394,23.695,335.394,52.929z"/>
	<path style="fill:#07B671;" d="M194.249,264.998v123.501h-26.465c-9.73,0.026-17.617,7.913-17.643,17.643V512h-44.108V326.748
		c0-34.104,27.647-61.751,61.751-61.751H194.249z"/>
	<path style="fill:#07B671;" d="M194.249,388.499V264.998h26.465c0,19.487,15.799,35.286,35.286,35.286s35.286-15.799,35.286-35.286
		h26.465v123.501c-9.748,0-17.643,7.895-17.643,17.643c0,9.748,7.895,17.643,17.643,17.643c9.748,0,17.643-7.895,17.643-17.643
		h26.465V512H150.142V406.142c0.026-9.73,7.913-17.617,17.643-17.643H194.249z"/>
	<path style="fill:#07B671;" d="M361.858,406.142h-26.465c-0.026-9.73-7.913-17.617-17.643-17.643V264.998h26.465
		c34.104,0,61.751,27.647,61.751,61.751V512h-44.108V406.142z"/>
</g>
<g>
	<circle style="fill:#A55F39;" cx="286.875" cy="128.265" r="13.232"/>
	<circle style="fill:#A55F39;" cx="225.125" cy="128.265" r="13.232"/>
</g>
<g>
	<rect x="141.32" y="450.25" style="fill:#00965C;" width="17.643" height="61.751"/>
	<rect x="353.037" y="309.105" style="fill:#00965C;" width="17.643" height="202.895"/>
</g>
<g>
	<rect x="308.929" y="264.998" style="fill:#E5E5E5;" width="17.643" height="123.501"/>
	<path style="fill:#E5E5E5;" d="M317.751,432.607c-14.617,0-26.465-11.847-26.465-26.465s11.847-26.465,26.465-26.465
		c14.617,0,26.465,11.847,26.465,26.465S332.368,432.607,317.751,432.607z M317.751,397.32c-4.869,0-8.822,3.952-8.822,8.822
		s3.952,8.822,8.822,8.822c4.869,0,8.822-3.952,8.822-8.822S322.62,397.32,317.751,397.32z"/>
	<rect x="185.428" y="264.998" style="fill:#E5E5E5;" width="17.643" height="123.501"/>
	<path style="fill:#E5E5E5;" d="M238.357,441.428h-17.643v-17.643h8.822v-17.643c0-4.869-3.952-8.822-8.822-8.822h-52.929
		c-4.869,0-8.822,3.952-8.822,8.822v17.643h8.822v17.643h-17.643c-4.869,0-8.822-3.952-8.822-8.822v-26.465
		c0-14.617,11.847-26.465,26.465-26.465h52.929c14.617,0,26.465,11.847,26.465,26.465v26.465
		C247.179,437.476,243.226,441.428,238.357,441.428z"/>
</g>
<rect x="141.32" y="309.105" style="fill:#00965C;" width="17.643" height="61.751"/>
<g>
</g>
<g>
</g>
<g>
</g>
<g>
</g>
<g>
</g>
<g>
</g>
<g>
</g>
<g>
</g>
<g>
</g>
<g>
</g>
<g>
</g>
<g>
</g>
<g>
</g>
<g>
</g>
<g>
</g>
</svg>
