<?xml version="1.0" encoding="UTF-8" standalone="no"?>
<!-- Generator: Adobe Illustrator 13.0.0, SVG Export Plug-In . SVG Version: 6.00 Build 14948)  -->

<svg
   xmlns:dc="http://purl.org/dc/elements/1.1/"
   xmlns:cc="http://creativecommons.org/ns#"
   xmlns:rdf="http://www.w3.org/1999/02/22-rdf-syntax-ns#"
   xmlns:svg="http://www.w3.org/2000/svg"
   xmlns="http://www.w3.org/2000/svg"
   xmlns:xlink="http://www.w3.org/1999/xlink"
   xmlns:sodipodi="http://sodipodi.sourceforge.net/DTD/sodipodi-0.dtd"
   xmlns:inkscape="http://www.inkscape.org/namespaces/inkscape"
   version="1.1"
   id="Layer_4"
   x="0px"
   y="0px"
   width="439px"
   height="682px"
   viewBox="0 0 439 682"
   enable-background="new 0 0 439 682"
   xml:space="preserve"
   inkscape:version="0.48.5 r10040"
   sodipodi:docname="Trentino_CoA.svg"><title
   id="title4484">Stemma Provincia autonoma di Trento</title><metadata
   id="metadata864"><rdf:RDF><cc:Work
       rdf:about=""><dc:format>image/svg+xml</dc:format><dc:type
         rdf:resource="http://purl.org/dc/dcmitype/StillImage" /><dc:title>Stemma Provincia autonoma di Trento</dc:title><dc:rights><cc:Agent><dc:title>https://commons.wikimedia.org/wiki/User:Gothika</dc:title></cc:Agent></dc:rights><dc:language>it, en</dc:language><dc:subject><rdf:Bag><rdf:li>Stemma</rdf:li><rdf:li>coat of arm</rdf:li><rdf:li>provincia autonoma</rdf:li><rdf:li>Trento</rdf:li><rdf:li>Trentino</rdf:li></rdf:Bag></dc:subject><dc:description>Stemma concesso con D.P.R. del 4 gennaio 1988: su scudo appuntato: d'argento, all'aquila di Trento, con la bordatura, diminuita in filetto, di porpora. Sopra lo scudo, la corona speciale della Provincia Autonoma di Trento, che è formata dal cerchio d'oro, brunito, gemmato, cimato da quattro fioroni (tre visibili), sostenuti da punte, e alternati da dodici sferette, di cui otto poste sul margine del cerchio (quattro visibili, due e due), e quattro sostenute da punte (due visibili una e una), alternanti le sferette poste sul margine</dc:description></cc:Work></rdf:RDF></metadata><defs
   id="defs862"><inkscape:perspective
     sodipodi:type="inkscape:persp3d"
     inkscape:vp_x="0 : 341 : 1"
     inkscape:vp_y="0 : 1000 : 0"
     inkscape:vp_z="439 : 341 : 1"
     inkscape:persp3d-origin="219.5 : 227.33333 : 1"
     id="perspective866" /><radialGradient
     inkscape:collect="always"
     xlink:href="#SVGID_34_"
     id="radialGradient4450"
     gradientUnits="userSpaceOnUse"
     gradientTransform="matrix(-1.3966,0,0,-1.3966,52.091042,1006.1798)"
     cx="-195.2993"
     cy="495.7385"
     r="9.1496" /><radialGradient
     inkscape:collect="always"
     xlink:href="#SVGID_33_"
     id="radialGradient4452"
     gradientUnits="userSpaceOnUse"
     gradientTransform="matrix(1.3966,0,0,-1.3966,-146.20006,1006.1798)"
     cx="182.4531"
     cy="495.7395"
     r="9.1496" /><radialGradient
     inkscape:collect="always"
     xlink:href="#SVGID_19_"
     id="radialGradient4454"
     gradientUnits="userSpaceOnUse"
     gradientTransform="matrix(-1.4723,0,0,-1.3966,69.245043,1006.1798)"
     cx="-162.7295"
     cy="444.3059"
     r="34.9208" /><radialGradient
     inkscape:collect="always"
     xlink:href="#SVGID_18_"
     id="radialGradient4456"
     gradientUnits="userSpaceOnUse"
     gradientTransform="matrix(1.4723,0,0,-1.3966,-152.81696,1006.1798)"
     cx="189.2383"
     cy="444.1692"
     r="34.8022" /><radialGradient
     inkscape:collect="always"
     xlink:href="#SVGID_17_"
     id="radialGradient4458"
     gradientUnits="userSpaceOnUse"
     gradientTransform="matrix(1.3966,0,0,-1.3966,-146.20006,1006.1798)"
     cx="243.5576"
     cy="503.6116"
     r="0" /><radialGradient
     inkscape:collect="always"
     xlink:href="#SVGID_16_"
     id="radialGradient4460"
     gradientUnits="userSpaceOnUse"
     gradientTransform="matrix(1.3966,0,0,-1.3966,-146.20006,1006.1798)"
     cx="244.9414"
     cy="499.5354"
     r="15.1138" /><radialGradient
     inkscape:collect="always"
     xlink:href="#SVGID_15_"
     id="radialGradient4462"
     gradientUnits="userSpaceOnUse"
     gradientTransform="matrix(1.3966,0,0,-1.3966,-146.20006,1006.1798)"
     cx="281.4668"
     cy="356.2688"
     r="1.9718" /><radialGradient
     inkscape:collect="always"
     xlink:href="#SVGID_14_"
     id="radialGradient4464"
     gradientUnits="userSpaceOnUse"
     gradientTransform="matrix(1.3966,0,0,-1.3966,-146.20006,1006.1798)"
     cx="304.0371"
     cy="338.7649"
     r="3.8475" /><radialGradient
     inkscape:collect="always"
     xlink:href="#SVGID_13_"
     id="radialGradient4466"
     gradientUnits="userSpaceOnUse"
     gradientTransform="matrix(1.3966,0,0,-1.3966,-146.20006,1006.1798)"
     cx="320.2373"
     cy="351.1194"
     r="2.9549" /><radialGradient
     inkscape:collect="always"
     xlink:href="#SVGID_12_"
     id="radialGradient4468"
     gradientUnits="userSpaceOnUse"
     gradientTransform="matrix(1.3966,0,0,-1.3966,-146.20006,1006.1798)"
     cx="205.8394"
     cy="374.8108"
     r="0" /><radialGradient
     inkscape:collect="always"
     xlink:href="#SVGID_11_"
     id="radialGradient4470"
     gradientUnits="userSpaceOnUse"
     gradientTransform="matrix(1.3966,0,0,-1.3966,-146.20006,1006.1798)"
     cx="313.751"
     cy="368.5139"
     r="2.7472" /><radialGradient
     inkscape:collect="always"
     xlink:href="#SVGID_10_"
     id="radialGradient4472"
     gradientUnits="userSpaceOnUse"
     gradientTransform="matrix(1.3966,0,0,-1.3966,-146.20006,1006.1798)"
     cx="239.8965"
     cy="356.4231"
     r="2.4825" /><radialGradient
     inkscape:collect="always"
     xlink:href="#SVGID_9_"
     id="radialGradient4474"
     gradientUnits="userSpaceOnUse"
     gradientTransform="matrix(1.3966,0,0,-1.3966,-146.20006,1006.1798)"
     cx="215.9307"
     cy="339.7424"
     r="3.0921" /><radialGradient
     inkscape:collect="always"
     xlink:href="#SVGID_8_"
     id="radialGradient4476"
     gradientUnits="userSpaceOnUse"
     gradientTransform="matrix(1.3966,0,0,-1.3966,-146.20006,1006.1798)"
     cx="200.3389"
     cy="351.1731"
     r="2.682" /><radialGradient
     inkscape:collect="always"
     xlink:href="#SVGID_7_"
     id="radialGradient4478"
     gradientUnits="userSpaceOnUse"
     gradientTransform="matrix(1.3966,0,0,-1.3966,-146.20006,1006.1798)"
     cx="205.8984"
     cy="368.5061"
     r="3.0223" /><radialGradient
     inkscape:collect="always"
     xlink:href="#SVGID_6_"
     id="radialGradient4480"
     gradientUnits="userSpaceOnUse"
     gradientTransform="matrix(-1.3966,0,0,-1.3966,83.964142,1006.1798)"
     cx="-135.4492"
     cy="360.0217"
     r="18.2935" /><radialGradient
     inkscape:collect="always"
     xlink:href="#SVGID_5_"
     id="radialGradient4482"
     gradientUnits="userSpaceOnUse"
     gradientTransform="matrix(1.3966,0,0,-1.3966,-146.20006,1006.1798)"
     cx="220.0479"
     cy="360.3303"
     r="18.2937" /></defs><sodipodi:namedview
   pagecolor="#ffffff"
   bordercolor="#666666"
   borderopacity="1"
   objecttolerance="10"
   gridtolerance="10"
   guidetolerance="10"
   inkscape:pageopacity="0"
   inkscape:pageshadow="2"
   inkscape:window-width="1440"
   inkscape:window-height="853"
   id="namedview860"
   showgrid="false"
   inkscape:zoom="1.093029"
   inkscape:cx="68.463634"
   inkscape:cy="303.51789"
   inkscape:window-x="-4"
   inkscape:window-y="-4"
   inkscape:window-maximized="1"
   inkscape:current-layer="Layer_4" />
<g
   id="Layer_2">
</g>
<g
   id="Layer_3">
</g>
<g
   id="Layer_5">
</g>
<g
   id="g6">
	
		<linearGradient
   id="SVGID_1_"
   gradientUnits="userSpaceOnUse"
   x1="17.894"
   y1="631.9602"
   x2="45.2402"
   y2="631.9602"
   gradientTransform="matrix(1 0 0 -1 -8.3623 705.8345)">
		<stop
   offset="0.0056"
   style="stop-color:#FBC926"
   id="stop9" />
		<stop
   offset="0.2528"
   style="stop-color:#FFFBCC"
   id="stop11" />
		<stop
   offset="0.3045"
   style="stop-color:#F8F0BB"
   id="stop13" />
		<stop
   offset="0.4072"
   style="stop-color:#E7D28E"
   id="stop15" />
		<stop
   offset="0.55"
   style="stop-color:#CCA246"
   id="stop17" />
		<stop
   offset="0.5955"
   style="stop-color:#C3922E"
   id="stop19" />
		<stop
   offset="0.8708"
   style="stop-color:#EED688"
   id="stop21" />
		<stop
   offset="1"
   style="stop-color:#FFFBCC"
   id="stop23" />
	</linearGradient>
	<path
   fill="url(#SVGID_1_)"
   stroke="#000000"
   stroke-width="0.25"
   stroke-linecap="round"
   stroke-linejoin="round"
   d="   M36.878,64.656c0,0-11.647-11.071-23.15-0.287c-10.832,10.152,2.013,24.013,8.196,23.726c0.05-0.002-0.139-8.2-0.135-9.05   c-2.071-1.107-5.206-2.895-5.52-5.527c-0.196-1.656,1.182-3.124,2.875-2.53c1.87,0.656,2.13,3.218,2.925,4.732   c1.114,2.121,3.162,3.028,5.525,2.528c3.62-0.767,4.507-4.353,4.826-7.552L36.878,64.656z"
   id="path25" />
	
		<linearGradient
   id="SVGID_2_"
   gradientUnits="userSpaceOnUse"
   x1="40"
   y1="604.2229"
   x2="120.0112"
   y2="604.2229"
   gradientTransform="matrix(1 0 0 -1 -8.3623 705.8345)">
		<stop
   offset="0.0056"
   style="stop-color:#FBC926"
   id="stop28" />
		<stop
   offset="0.2528"
   style="stop-color:#FFFBCC"
   id="stop30" />
		<stop
   offset="0.3045"
   style="stop-color:#F8F0BB"
   id="stop32" />
		<stop
   offset="0.4072"
   style="stop-color:#E7D28E"
   id="stop34" />
		<stop
   offset="0.55"
   style="stop-color:#CCA246"
   id="stop36" />
		<stop
   offset="0.5955"
   style="stop-color:#C3922E"
   id="stop38" />
		<stop
   offset="0.8708"
   style="stop-color:#EED688"
   id="stop40" />
		<stop
   offset="1"
   style="stop-color:#FFFBCC"
   id="stop42" />
	</linearGradient>
	<path
   fill="url(#SVGID_2_)"
   stroke="#000000"
   stroke-width="0.25"
   d="M48.381,65.807c-0.288-3.738-6.327-8.052-6.327-8.052   c-2.588,2.301-4.026,6.901-4.026,6.901c-6.615-0.575-6.902,6.327-6.039,6.901c0.863,0.575,8.34,1.727,11.79,15.529   c3.451,13.805,10.875,19.179,10.875,19.179c6.902,28.471,34.276,39.201,34.276,39.201l22.719-8.627   c-26.745-0.575-36.81-13.804-36.81-13.804c5.751-0.863,3.163-5.465,3.163-5.465s4.602-0.862,4.602-5.464   c0-4.601-4.026-6.613-4.026-6.613c5.463-9.203-2.301-11.503-2.301-11.503c2.876-7.766-4.889-9.49-4.889-9.49   c0.287-7.766-3.739-6.902-6.615-7.189c-2.875-0.288,0-7.477-2.588-7.189c-2.588,0.288-7.189,3.164-8.915,7.477   c-0.915,2.288-0.875,4.93-0.739,7.347c0.112,1.979,0.618,4.275,0.222,6.244c-0.236,1.183-1.553,2.198-2.429,0.957   c-1.44-2.037-0.739-8.349-0.218-10.233c1.51-5.465,0.575-15.529,0.575-15.529L48.381,65.807z"
   id="path44" />
	<path
   fill="none"
   stroke="#000000"
   stroke-width="0.25"
   d="M64.774,77.311c0,0-3.739,6.327,0.575,8.915   c0,0-3.451,2.588-1.438,8.915c0,0,2.013,6.327,6.327,5.752c0,0,0,6.902,8.34,4.602"
   id="path46" />
	<path
   fill="none"
   stroke="#000000"
   stroke-width="0.25"
   stroke-linecap="square"
   d="M100.866,142.232   c0,0-31.778-9.418-42.706-30.412"
   id="path48" />
	<path
   fill="none"
   stroke="#000000"
   stroke-width="0.25"
   stroke-linecap="square"
   d="M67.65,120.16c0,0,2.301,3.45,7.189,2.876"
   id="path50" />
	<g
   id="g52">
		<path
   fill="none"
   stroke="#000000"
   stroke-width="0.25"
   d="M54.688,106.188c2.473-2.065,7.901-0.36,9.577,2.751    c0.884,1.643,0.453,3.717,1.87,5.235c1.664,1.782,3.893,1.299,5.991,1.826"
   id="path54" />
		<path
   fill="none"
   stroke="#000000"
   stroke-width="0.25"
   d="M58.125,79.5c-0.019,2.724-0.883,5.262-0.751,7.957    c0.113,2.312,1.239,4.578,1,6.921c-0.465,4.554-5.242,6.978-3.686,11.809"
   id="path56" />
		<path
   fill="none"
   stroke="#000000"
   stroke-width="0.25"
   d="M54.688,106.188c-2.702-3.474-7.436-10.174-8.541-14.459    c-1.399-5.425-0.486-11.784-0.508-17.356c-0.013-3.229,0.884-6.892-2.264-8.871"
   id="path58" />
		<path
   fill="none"
   stroke="#000000"
   stroke-width="0.25"
   d="M54.688,106.188c-0.933-4.712,7.159-1.604,7.188-5.688"
   id="path60" />
	</g>
</g>
<g
   id="g62">
	
		<linearGradient
   id="SVGID_3_"
   gradientUnits="userSpaceOnUse"
   x1="-470.8301"
   y1="631.9602"
   x2="-443.4834"
   y2="631.9602"
   gradientTransform="matrix(-1 0 0 -1 -45.1807 705.8345)">
		<stop
   offset="0.0056"
   style="stop-color:#FBC926"
   id="stop65" />
		<stop
   offset="0.2528"
   style="stop-color:#FFFBCC"
   id="stop67" />
		<stop
   offset="0.3045"
   style="stop-color:#F8F0BB"
   id="stop69" />
		<stop
   offset="0.4072"
   style="stop-color:#E7D28E"
   id="stop71" />
		<stop
   offset="0.55"
   style="stop-color:#CCA246"
   id="stop73" />
		<stop
   offset="0.5955"
   style="stop-color:#C3922E"
   id="stop75" />
		<stop
   offset="0.8708"
   style="stop-color:#EED688"
   id="stop77" />
		<stop
   offset="1"
   style="stop-color:#FFFBCC"
   id="stop79" />
	</linearGradient>
	<path
   fill="url(#SVGID_3_)"
   stroke="#000000"
   stroke-width="0.25"
   stroke-linecap="round"
   stroke-linejoin="round"
   d="   M398.303,64.656c0,0,11.647-11.071,23.15-0.287c10.832,10.152-2.013,24.013-8.195,23.726c-0.05-0.002,0.14-8.2,0.135-9.05   c2.071-1.107,5.206-2.895,5.521-5.527c0.196-1.656-1.182-3.124-2.875-2.53c-1.869,0.656-2.131,3.218-2.926,4.732   c-1.113,2.121-3.161,3.028-5.524,2.528c-3.62-0.767-4.507-4.353-4.825-7.552L398.303,64.656z"
   id="path81" />
	
		<linearGradient
   id="SVGID_4_"
   gradientUnits="userSpaceOnUse"
   x1="-448.7227"
   y1="604.2229"
   x2="-368.7129"
   y2="604.2229"
   gradientTransform="matrix(-1 0 0 -1 -45.1807 705.8345)">
		<stop
   offset="0.0056"
   style="stop-color:#FBC926"
   id="stop84" />
		<stop
   offset="0.2528"
   style="stop-color:#FFFBCC"
   id="stop86" />
		<stop
   offset="0.3045"
   style="stop-color:#F8F0BB"
   id="stop88" />
		<stop
   offset="0.4072"
   style="stop-color:#E7D28E"
   id="stop90" />
		<stop
   offset="0.55"
   style="stop-color:#CCA246"
   id="stop92" />
		<stop
   offset="0.5955"
   style="stop-color:#C3922E"
   id="stop94" />
		<stop
   offset="0.8708"
   style="stop-color:#EED688"
   id="stop96" />
		<stop
   offset="1"
   style="stop-color:#FFFBCC"
   id="stop98" />
	</linearGradient>
	<path
   fill="url(#SVGID_4_)"
   stroke="#000000"
   stroke-width="0.25"
   d="M386.801,65.807c0.287-3.738,6.326-8.052,6.326-8.052   c2.588,2.301,4.025,6.901,4.025,6.901c6.614-0.575,6.901,6.327,6.039,6.901c-0.862,0.575-8.341,1.727-11.789,15.529   c-3.451,13.805-10.875,19.179-10.875,19.179c-6.902,28.471-34.276,39.201-34.276,39.201l-22.719-8.627   c26.745-0.575,36.81-13.804,36.81-13.804c-5.751-0.863-3.162-5.465-3.162-5.465s-4.602-0.862-4.602-5.464   c0-4.601,4.024-6.613,4.024-6.613c-5.463-9.203,2.302-11.503,2.302-11.503c-2.877-7.766,4.889-9.49,4.889-9.49   c-0.287-7.766,3.738-6.902,6.615-7.189c2.875-0.288,0-7.477,2.588-7.189c2.588,0.288,7.188,3.164,8.914,7.477   c0.915,2.288,0.875,4.93,0.74,7.347c-0.112,1.979-0.618,4.275-0.224,6.244c0.236,1.183,1.554,2.198,2.43,0.957   c1.439-2.037,0.738-8.349,0.218-10.233c-1.511-5.465-0.574-15.529-0.574-15.529L386.801,65.807z"
   id="path100" />
	<path
   fill="none"
   stroke="#000000"
   stroke-width="0.25"
   d="M370.408,77.311c0,0,3.737,6.327-0.576,8.915   c0,0,3.451,2.588,1.438,8.915c0,0-2.012,6.327-6.325,5.752c0,0,0,6.902-8.34,4.602"
   id="path102" />
	<path
   fill="none"
   stroke="#000000"
   stroke-width="0.25"
   stroke-linecap="square"
   d="M334.316,142.232   c0,0,31.776-9.418,42.704-30.412"
   id="path104" />
	<path
   fill="none"
   stroke="#000000"
   stroke-width="0.25"
   stroke-linecap="square"
   d="M367.531,120.16c0,0-2.301,3.45-7.189,2.876"
   id="path106" />
	<g
   id="g108">
		<path
   fill="none"
   stroke="#000000"
   stroke-width="0.25"
   d="M380.494,106.188c-2.474-2.065-7.901-0.36-9.577,2.751    c-0.884,1.643-0.452,3.717-1.87,5.235c-1.664,1.782-3.893,1.299-5.99,1.826"
   id="path110" />
		<path
   fill="none"
   stroke="#000000"
   stroke-width="0.25"
   d="M377.057,79.5c0.021,2.724,0.884,5.262,0.751,7.957    c-0.112,2.312-1.238,4.578-0.999,6.921c0.466,4.554,5.242,6.978,3.687,11.809"
   id="path112" />
		<path
   fill="none"
   stroke="#000000"
   stroke-width="0.25"
   d="M380.494,106.188c2.701-3.474,7.436-10.174,8.541-14.459    c1.397-5.425,0.484-11.784,0.508-17.356c0.013-3.229-0.884-6.892,2.264-8.871"
   id="path114" />
		<path
   fill="none"
   stroke="#000000"
   stroke-width="0.25"
   d="M380.494,106.188c0.933-4.712-7.159-1.604-7.188-5.688"
   id="path116" />
	</g>
</g>


<radialGradient
   id="SVGID_5_"
   cx="220.0479"
   cy="360.3303"
   r="18.2937"
   gradientTransform="matrix(1.3966 0 0 -1.3966 -147.211 1005.832)"
   gradientUnits="userSpaceOnUse">
	<stop
   offset="0"
   style="stop-color:#FFDB7D"
   id="stop123" />
	<stop
   offset="1"
   style="stop-color:#EFBA3C"
   id="stop125" />
</radialGradient>

<radialGradient
   id="SVGID_6_"
   cx="-135.4492"
   cy="360.0217"
   r="18.2935"
   gradientTransform="matrix(-1.3966 0 0 -1.3966 82.9532 1005.832)"
   gradientUnits="userSpaceOnUse">
	<stop
   offset="0"
   style="stop-color:#FFDB7D"
   id="stop130" />
	<stop
   offset="1"
   style="stop-color:#EFBA3C"
   id="stop132" />
</radialGradient>


<radialGradient
   id="SVGID_7_"
   cx="205.8984"
   cy="368.5061"
   r="3.0223"
   gradientTransform="matrix(1.3966 0 0 -1.3966 -147.211 1005.832)"
   gradientUnits="userSpaceOnUse">
	<stop
   offset="0"
   style="stop-color:#FFDB7D"
   id="stop139" />
	<stop
   offset="1"
   style="stop-color:#EFBA3C"
   id="stop141" />
</radialGradient>

<radialGradient
   id="SVGID_8_"
   cx="200.3389"
   cy="351.1731"
   r="2.682"
   gradientTransform="matrix(1.3966 0 0 -1.3966 -147.211 1005.832)"
   gradientUnits="userSpaceOnUse">
	<stop
   offset="0"
   style="stop-color:#FFDB7D"
   id="stop146" />
	<stop
   offset="1"
   style="stop-color:#EFBA3C"
   id="stop148" />
</radialGradient>

<radialGradient
   id="SVGID_9_"
   cx="215.9307"
   cy="339.7424"
   r="3.0921"
   gradientTransform="matrix(1.3966 0 0 -1.3966 -147.211 1005.832)"
   gradientUnits="userSpaceOnUse">
	<stop
   offset="0"
   style="stop-color:#FFDB7D"
   id="stop153" />
	<stop
   offset="1"
   style="stop-color:#EFBA3C"
   id="stop155" />
</radialGradient>

<radialGradient
   id="SVGID_10_"
   cx="239.8965"
   cy="356.4231"
   r="2.4825"
   gradientTransform="matrix(1.3966 0 0 -1.3966 -147.211 1005.832)"
   gradientUnits="userSpaceOnUse">
	<stop
   offset="0"
   style="stop-color:#FFDB7D"
   id="stop160" />
	<stop
   offset="1"
   style="stop-color:#EFBA3C"
   id="stop162" />
</radialGradient>

<radialGradient
   id="SVGID_11_"
   cx="313.751"
   cy="368.5139"
   r="2.7472"
   gradientTransform="matrix(1.3966 0 0 -1.3966 -147.211 1005.832)"
   gradientUnits="userSpaceOnUse">
	<stop
   offset="0"
   style="stop-color:#FFDB7D"
   id="stop167" />
	<stop
   offset="1"
   style="stop-color:#EFBA3C"
   id="stop169" />
</radialGradient>

<radialGradient
   id="SVGID_12_"
   cx="205.8394"
   cy="374.8108"
   r="0"
   gradientTransform="matrix(1.3966 0 0 -1.3966 -147.211 1005.832)"
   gradientUnits="userSpaceOnUse">
	<stop
   offset="0"
   style="stop-color:#FFDB7D"
   id="stop174" />
	<stop
   offset="1"
   style="stop-color:#EFBA3C"
   id="stop176" />
</radialGradient>

<radialGradient
   id="SVGID_13_"
   cx="320.2373"
   cy="351.1194"
   r="2.9549"
   gradientTransform="matrix(1.3966 0 0 -1.3966 -147.211 1005.832)"
   gradientUnits="userSpaceOnUse">
	<stop
   offset="0"
   style="stop-color:#FFDB7D"
   id="stop181" />
	<stop
   offset="1"
   style="stop-color:#EFBA3C"
   id="stop183" />
</radialGradient>

<radialGradient
   id="SVGID_14_"
   cx="304.0371"
   cy="338.7649"
   r="3.8475"
   gradientTransform="matrix(1.3966 0 0 -1.3966 -147.211 1005.832)"
   gradientUnits="userSpaceOnUse">
	<stop
   offset="0"
   style="stop-color:#FFDB7D"
   id="stop188" />
	<stop
   offset="1"
   style="stop-color:#EFBA3C"
   id="stop190" />
</radialGradient>

<radialGradient
   id="SVGID_15_"
   cx="281.4668"
   cy="356.2688"
   r="1.9718"
   gradientTransform="matrix(1.3966 0 0 -1.3966 -147.211 1005.832)"
   gradientUnits="userSpaceOnUse">
	<stop
   offset="0"
   style="stop-color:#FFDB7D"
   id="stop195" />
	<stop
   offset="1"
   style="stop-color:#EFBA3C"
   id="stop197" />
</radialGradient>

<radialGradient
   id="SVGID_16_"
   cx="244.9414"
   cy="499.5354"
   r="15.1138"
   gradientTransform="matrix(1.3966 0 0 -1.3966 -147.211 1005.832)"
   gradientUnits="userSpaceOnUse">
	<stop
   offset="0"
   style="stop-color:#FFDB7D"
   id="stop202" />
	<stop
   offset="1"
   style="stop-color:#EFBA3C"
   id="stop204" />
</radialGradient>

<radialGradient
   id="SVGID_17_"
   cx="243.5576"
   cy="503.6116"
   r="0"
   gradientTransform="matrix(1.3966 0 0 -1.3966 -147.211 1005.832)"
   gradientUnits="userSpaceOnUse">
	<stop
   offset="0"
   style="stop-color:#FFDB7D"
   id="stop209" />
	<stop
   offset="1"
   style="stop-color:#EFBA3C"
   id="stop211" />
</radialGradient>









<radialGradient
   id="SVGID_18_"
   cx="189.2383"
   cy="444.1692"
   r="34.8022"
   gradientTransform="matrix(1.4723 0 0 -1.3966 -153.8279 1005.832)"
   gradientUnits="userSpaceOnUse">
	<stop
   offset="0"
   style="stop-color:#FFDB7D"
   id="stop232" />
	<stop
   offset="1"
   style="stop-color:#EFBA3C"
   id="stop234" />
</radialGradient>

<radialGradient
   id="SVGID_19_"
   cx="-162.7295"
   cy="444.3059"
   r="34.9208"
   gradientTransform="matrix(-1.4723 0 0 -1.3966 68.2341 1005.832)"
   gradientUnits="userSpaceOnUse">
	<stop
   offset="0"
   style="stop-color:#FFDB7D"
   id="stop239" />
	<stop
   offset="1"
   style="stop-color:#EFBA3C"
   id="stop241" />
</radialGradient>

<path
   fill="none"
   stroke="#A92C5B"
   stroke-width="9"
   d="M394.443,258.01H44.739c0,0-86.659,234.671,172.551,416.424  C217.29,674.434,438.921,563.232,394.443,258.01z"
   id="path245"
   style="fill:#ffffff;fill-opacity:1;stroke:#a30046;stroke-opacity:1" />
<linearGradient
   id="SVGID_20_"
   gradientUnits="userSpaceOnUse"
   x1="189.2251"
   y1="640.5989"
   x2="269.7031"
   y2="640.5989"
   gradientTransform="matrix(1 0 0 -1 -8.3623 705.8345)">
	<stop
   offset="0.0056"
   style="stop-color:#FBC926"
   id="stop248" />
	<stop
   offset="0.2528"
   style="stop-color:#FFFBCC"
   id="stop250" />
	<stop
   offset="0.3045"
   style="stop-color:#F8F0BB"
   id="stop252" />
	<stop
   offset="0.4072"
   style="stop-color:#E7D28E"
   id="stop254" />
	<stop
   offset="0.55"
   style="stop-color:#CCA246"
   id="stop256" />
	<stop
   offset="0.5955"
   style="stop-color:#C3922E"
   id="stop258" />
	<stop
   offset="0.8708"
   style="stop-color:#EED688"
   id="stop260" />
	<stop
   offset="1"
   style="stop-color:#FFFBCC"
   id="stop262" />
</linearGradient>
<path
   fill="url(#SVGID_20_)"
   stroke="#000000"
   stroke-width="0.25"
   stroke-linecap="round"
   stroke-linejoin="round"
   d="  M258.604,122.174c-32.108-7.956-33.979-44.958-33.979-44.958c-0.67-5.942,2.975-5.561,2.975-5.561c3.452,0,2.49,5.08,2.49,5.08  c-1.339,3.931-0.764,5.273-0.764,5.273c1.052,7.38,9.589,6.424,9.589,6.424c2.972,2.301,6.614,2.588,6.614,2.588  c1.15-3.451,0.377-8.533,0.377-8.533s10.552-28.948,12.941-30.196c2.399-1.247,2.493-3.066,2.493-3.066s-3.45-6.521-9.971-7.095  c0,0,1.919-0.768,3.45-3.067c1.537-2.301-5.747-2.492-7.666-2.301c-1.92,0.191-7.863,3.258-9.396,5.942  c-1.531,2.685-4.982,3.644-5.751,2.495c-0.771-1.15,1.536-5.755,5.945-7.097c4.407-1.341,13.991-6.327,15.718-12.079  c0,0,0.768-1.725-4.025-2.875c0,0,4.219-4.791,1.149-11.311c0,0-4.215-0.961-5.94-0.77c-1.133,0.126-10.442-2.799-23.752-2.771  c-13.309-0.026-22.622,2.898-23.753,2.771c-1.725-0.192-5.942,0.77-5.942,0.77c-3.067,6.52,1.15,11.311,1.15,11.311  c-4.793,1.15-4.026,2.875-4.026,2.875c1.726,5.752,11.313,10.737,15.721,12.079s6.712,5.945,5.945,7.097  c-0.767,1.148-4.22,0.189-5.752-2.495c-1.532-2.686-7.478-5.751-9.396-5.942s-9.201,0-7.667,2.301c1.534,2.3,3.45,3.067,3.45,3.067  c-6.518,0.575-9.968,7.095-9.968,7.095s0.095,1.82,2.491,3.066c2.395,1.247,12.941,30.196,12.941,30.196s-0.77,5.082,0.382,8.533  c0,0,3.642-0.287,6.613-2.588c0,0,8.533,0.957,9.588-6.424c0,0,0.577-1.343-0.767-5.273c0,0-0.959-5.08,2.491-5.08  c0,0,3.645-0.382,2.974,5.561c0,0-0.957,36.714-33.073,44.67"
   id="path264" />
<g
   id="g266">
	
		<linearGradient
   id="SVGID_21_"
   gradientUnits="userSpaceOnUse"
   x1="249.9961"
   y1="637.1262"
   x2="271.0967"
   y2="637.1262"
   gradientTransform="matrix(1 0 0 -1 -8.3623 705.8345)">
		<stop
   offset="0.0056"
   style="stop-color:#FBC926"
   id="stop269" />
		<stop
   offset="0.2528"
   style="stop-color:#FFFBCC"
   id="stop271" />
		<stop
   offset="0.3045"
   style="stop-color:#F8F0BB"
   id="stop273" />
		<stop
   offset="0.4072"
   style="stop-color:#E7D28E"
   id="stop275" />
		<stop
   offset="0.55"
   style="stop-color:#CCA246"
   id="stop277" />
		<stop
   offset="0.5955"
   style="stop-color:#C3922E"
   id="stop279" />
		<stop
   offset="0.8708"
   style="stop-color:#EED688"
   id="stop281" />
		<stop
   offset="1"
   style="stop-color:#FFFBCC"
   id="stop283" />
	</linearGradient>
	<path
   fill="url(#SVGID_21_)"
   stroke="#000000"
   stroke-width="0.25"
   d="M250.652,61.685c-0.904,0.009-4.176,1.298-4.795,1.822   c-1.25,1.054-2.273,3.154-2.59,5.655c-0.191,1.533,0.5,3.91,0.465,4.684c-2.494,1.701-2.666,5.305-1.039,7.731   c2.232,3.334,10.002,1.843,10.541-2.351c0.172-1.303-0.25-2.665-0.67-3.92c-0.063-0.194,0.072,0.187,0,0   c2.318,0.542,4.498-1.045,5.561-3.076c1.249-2.396,0.148-6.909-0.832-7.578c1.752,0.271,3.566,0.345,4.664-1.327   c1.034-1.573,0.936-3.871,0.292-5.565c-1.663-4.384-6.713-5.084-10.017-1.239C250.827,58.161,250.57,59.651,250.652,61.685   L250.652,61.685z"
   id="path285" />
	<path
   fill="none"
   stroke="#000000"
   stroke-width="0.25"
   stroke-linecap="round"
   d="M248.252,72.494c0,0,4.982-0.264,4.982,6.444"
   id="path287" />
	<path
   fill="none"
   stroke="#000000"
   stroke-width="0.25"
   stroke-linecap="round"
   d="M254.363,62.572   c0.287-0.009,3.955,1.485,4.24,5.32"
   id="path289" />
</g>
<g
   id="g291">
	
		<linearGradient
   id="SVGID_22_"
   gradientUnits="userSpaceOnUse"
   x1="-6.4448"
   y1="637.0784"
   x2="14.6558"
   y2="637.0784"
   gradientTransform="matrix(-1 0 0 -1 196.4717 705.8345)">
		<stop
   offset="0.0056"
   style="stop-color:#FBC926"
   id="stop294" />
		<stop
   offset="0.2528"
   style="stop-color:#FFFBCC"
   id="stop296" />
		<stop
   offset="0.3045"
   style="stop-color:#F8F0BB"
   id="stop298" />
		<stop
   offset="0.4072"
   style="stop-color:#E7D28E"
   id="stop300" />
		<stop
   offset="0.55"
   style="stop-color:#CCA246"
   id="stop302" />
		<stop
   offset="0.5955"
   style="stop-color:#C3922E"
   id="stop304" />
		<stop
   offset="0.8708"
   style="stop-color:#EED688"
   id="stop306" />
		<stop
   offset="1"
   style="stop-color:#FFFBCC"
   id="stop308" />
	</linearGradient>
	<path
   fill="url(#SVGID_22_)"
   stroke="#000000"
   stroke-width="0.25"
   d="M193.899,61.685c0.902,0.009,4.175,1.298,4.794,1.822   c1.249,1.054,2.273,3.154,2.588,5.655c0.194,1.534-0.499,3.911-0.462,4.684c2.493,1.701,2.665,5.305,1.038,7.731   c-2.234,3.334-9.468,2.132-10.296-2.021c-0.65-3.275,0.711-3.466,1.128-4.723c0.064-0.193-0.777,0.658-0.705,0.472   c-2.318,0.542-4.417-1.09-5.558-3.076c-2.161-3.763-0.148-6.909,0.831-7.578c-1.753,0.271-3.568,0.345-4.665-1.327   c-1.033-1.573-0.934-3.871-0.291-5.565c1.662-4.384,6.712-5.084,10.016-1.239C193.724,58.161,193.979,59.651,193.899,61.685   L193.899,61.685z"
   id="path310" />
	<path
   fill="none"
   stroke="#000000"
   stroke-width="0.25"
   stroke-linecap="round"
   d="M198.213,73.668c0,0-5.465-1.822-6.711,3.833"
   id="path312" />
	<path
   fill="none"
   stroke="#000000"
   stroke-width="0.25"
   stroke-linecap="round"
   d="M191.599,63.028   c-0.288-0.009-6.327,0.623-6.111,5.728"
   id="path314" />
</g>
<path
   fill="none"
   stroke="#000000"
   stroke-width="0.25"
   stroke-linecap="round"
   stroke-linejoin="round"
   d="M203.246,61.637"
   id="path316" />
<g
   id="g318">
	
		<linearGradient
   id="SVGID_23_"
   gradientUnits="userSpaceOnUse"
   x1="-203.0942"
   y1="436.5764"
   x2="-181.2148"
   y2="436.5764"
   gradientTransform="matrix(-0.4907 0.8713 -0.8713 -0.4907 506.7805 395.6213)">
		<stop
   offset="0.0056"
   style="stop-color:#FBC926"
   id="stop321" />
		<stop
   offset="0.2528"
   style="stop-color:#FFFBCC"
   id="stop323" />
		<stop
   offset="0.3045"
   style="stop-color:#F8F0BB"
   id="stop325" />
		<stop
   offset="0.4072"
   style="stop-color:#E7D28E"
   id="stop327" />
		<stop
   offset="0.55"
   style="stop-color:#CCA246"
   id="stop329" />
		<stop
   offset="0.5955"
   style="stop-color:#C3922E"
   id="stop331" />
		<stop
   offset="0.8708"
   style="stop-color:#EED688"
   id="stop333" />
		<stop
   offset="1"
   style="stop-color:#FFFBCC"
   id="stop335" />
	</linearGradient>
	<path
   fill="url(#SVGID_23_)"
   stroke="#000000"
   stroke-width="0.25"
   d="M215.563,8.881c0.453-0.784,3.228-2.903,3.941-3.285   c2.361-1.26,4.374-0.397,6.196,0.521c1.432,0.721,3.167,2.354,3.858,2.702c2.703-1.339,5.926,0.281,7.242,2.89   c1.807,3.581-2.74,9.122-6.813,7.979c-2.35-0.661-2.69-1.813-3.581-2.793c-0.14-0.149,0.211,0.493,0.086,0.34   c-0.667,2.287-3.28,4.862-5.563,4.645c-4.792-0.456-6.081-5.037-6.184-6.219c-0.623,1.657,0.141,2.952-3.02,3.942   c-3.766,1.177-5.932-2.077-6.039-2.207c-3.003-3.599-0.371-8.682,4.599-9.67C212.41,7.304,213.832,7.812,215.563,8.881   L215.563,8.881z"
   id="path337" />
	<path
   fill="none"
   stroke="#000000"
   stroke-width="0.25"
   stroke-linecap="round"
   d="M226.779,11.932c0,0-3.26,3.836,1.725,7.095"
   id="path339" />
	<path
   fill="none"
   stroke="#000000"
   stroke-width="0.25"
   stroke-linecap="round"
   d="M215.181,11.838   c-0.151,0.245-1.63,3.738,0.861,7.188"
   id="path341" />
</g>
<radialGradient
   id="SVGID_24_"
   cx="179.3784"
   cy="633.4749"
   r="8.3748"
   gradientTransform="matrix(1.3966 0 0 -1.3966 -147.211 1005.832)"
   gradientUnits="userSpaceOnUse">
	<stop
   offset="0"
   style="stop-color:#FFDB7D"
   id="stop344" />
	<stop
   offset="1"
   style="stop-color:#EFBA3C"
   id="stop346" />
</radialGradient>
<circle
   fill="url(#SVGID_24_)"
   stroke="#000000"
   stroke-width="0.25"
   cx="103.309"
   cy="121.12"
   r="11.696"
   id="circle348" />
<radialGradient
   id="SVGID_25_"
   cx="235.5938"
   cy="643.2229"
   r="8.375"
   gradientTransform="matrix(1.3966 0 0 -1.3966 -147.211 1005.832)"
   gradientUnits="userSpaceOnUse">
	<stop
   offset="0"
   style="stop-color:#FFDB7D"
   id="stop351" />
	<stop
   offset="1"
   style="stop-color:#EFBA3C"
   id="stop353" />
</radialGradient>
<circle
   fill="url(#SVGID_25_)"
   stroke="#000000"
   stroke-width="0.25"
   cx="181.819"
   cy="107.506"
   r="11.696"
   id="circle355" />
<radialGradient
   id="SVGID_26_"
   cx="293.8691"
   cy="643.0139"
   r="8.3745"
   gradientTransform="matrix(1.3966 0 0 -1.3966 -147.211 1005.832)"
   gradientUnits="userSpaceOnUse">
	<stop
   offset="0"
   style="stop-color:#FFDB7D"
   id="stop358" />
	<stop
   offset="1"
   style="stop-color:#EFBA3C"
   id="stop360" />
</radialGradient>
<path
   fill="url(#SVGID_26_)"
   stroke="#000000"
   stroke-width="0.25"
   d="M251.51,107.796c0-6.457,5.24-11.694,11.696-11.694  c6.458,0,11.696,5.237,11.696,11.694c0,6.46-5.238,11.697-11.696,11.697C256.75,119.493,251.51,114.256,251.51,107.796z"
   id="path362" />
<radialGradient
   id="SVGID_27_"
   cx="344.5244"
   cy="634.2307"
   r="8.375"
   gradientTransform="matrix(1.3966 0 0 -1.3966 -147.211 1005.832)"
   gradientUnits="userSpaceOnUse">
	<stop
   offset="0"
   style="stop-color:#FFDB7D"
   id="stop365" />
	<stop
   offset="1"
   style="stop-color:#EFBA3C"
   id="stop367" />
</radialGradient>
<circle
   fill="url(#SVGID_27_)"
   stroke="#000000"
   stroke-width="0.25"
   cx="333.952"
   cy="120.064"
   r="11.696"
   id="circle369" />
<g
   id="g371">
	
		<radialGradient
   id="SVGID_28_"
   cx="208.8267"
   cy="645.2815"
   r="20.8832"
   gradientTransform="matrix(1.3966 0 0 -1.3966 -147.211 1005.832)"
   gradientUnits="userSpaceOnUse">
		<stop
   offset="0"
   style="stop-color:#FFDB7D"
   id="stop374" />
		<stop
   offset="1"
   style="stop-color:#EFBA3C"
   id="stop376" />
	</radialGradient>
	<path
   fill="url(#SVGID_28_)"
   stroke="#000000"
   stroke-width="0.25"
   d="M114.144,132.624c0,0,21.475-22.239,11.504-54.066   l5.367-1.919c0,0,13.805,36.813,43.713,44.481L114.144,132.624z"
   id="path378" />
	<path
   fill="none"
   stroke="#000000"
   stroke-width="0.25"
   d="M167.441,122.652c0,0-32.204-16.871-36.042-34.892   c0,0,6.139,27.992-9.203,44.863"
   id="path380" />
	
		<radialGradient
   id="SVGID_29_"
   cx="196.0581"
   cy="670.1292"
   r="7.2764"
   gradientTransform="matrix(1.3966 0 0 -1.3966 -147.211 1005.832)"
   gradientUnits="userSpaceOnUse">
		<stop
   offset="0"
   style="stop-color:#FFDB7D"
   id="stop383" />
		<stop
   offset="1"
   style="stop-color:#EFBA3C"
   id="stop385" />
	</radialGradient>
	<circle
   fill="url(#SVGID_29_)"
   stroke="#000000"
   stroke-width="0.25"
   cx="126.604"
   cy="69.93"
   r="10.162"
   id="circle387" />
</g>
<g
   id="g389">
	
		<radialGradient
   id="SVGID_30_"
   cx="-159.0098"
   cy="642.2629"
   r="20.883"
   gradientTransform="matrix(-1.3966 0 0 -1.3966 73.4395 1005.832)"
   gradientUnits="userSpaceOnUse">
		<stop
   offset="0"
   style="stop-color:#FFDB7D"
   id="stop392" />
		<stop
   offset="1"
   style="stop-color:#EFBA3C"
   id="stop394" />
	</radialGradient>
	<path
   fill="url(#SVGID_30_)"
   stroke="#000000"
   stroke-width="0.25"
   d="M325.806,136.84c0,0-21.475-22.238-11.504-54.066   l-5.369-1.918c0,0-13.805,36.813-43.712,44.481L325.806,136.84z"
   id="path396" />
	<path
   fill="none"
   stroke="#000000"
   stroke-width="0.25"
   d="M272.508,126.87c0,0,32.205-16.872,36.043-34.893   c0,0-6.139,27.992,9.202,44.863"
   id="path398" />
	
		<radialGradient
   id="SVGID_31_"
   cx="-171.7773"
   cy="667.1096"
   r="7.2783"
   gradientTransform="matrix(-1.3966 0 0 -1.3966 73.4395 1005.832)"
   gradientUnits="userSpaceOnUse">
		<stop
   offset="0"
   style="stop-color:#FFDB7D"
   id="stop401" />
		<stop
   offset="1"
   style="stop-color:#EFBA3C"
   id="stop403" />
	</radialGradient>
	<circle
   fill="url(#SVGID_31_)"
   stroke="#000000"
   stroke-width="0.25"
   cx="313.345"
   cy="74.147"
   r="10.165"
   id="circle405" />
</g>
<g
   id="g407">
	<g
   id="g409">
		<linearGradient
   id="SVGID_32_"
   gradientUnits="userSpaceOnUse"
   x1="82.4424"
   y1="167.6121"
   x2="358.8467"
   y2="167.6121">
			<stop
   offset="0.0056"
   style="stop-color:#FBC926"
   id="stop412" />
			<stop
   offset="0.2528"
   style="stop-color:#FFFBCC"
   id="stop414" />
			<stop
   offset="0.3045"
   style="stop-color:#F8F0BB"
   id="stop416" />
			<stop
   offset="0.4072"
   style="stop-color:#E7D28E"
   id="stop418" />
			<stop
   offset="0.55"
   style="stop-color:#CCA246"
   id="stop420" />
			<stop
   offset="0.5955"
   style="stop-color:#C3922E"
   id="stop422" />
			<stop
   offset="0.8708"
   style="stop-color:#EED688"
   id="stop424" />
			<stop
   offset="1"
   style="stop-color:#FFFBCC"
   id="stop426" />
		</linearGradient>
		<path
   fill="url(#SVGID_32_)"
   d="M221.794,217.815c-71.448,0-129.575-12.587-129.575-28.058c0-2.415,1.507-4.853,4.477-7.247    l0.059-0.155c-0.362-12.487-4.504-18.643-5.765-20.229c-5.681-3.711-8.547-7.565-8.547-11.481    c0-18.327,61.999-33.237,138.203-33.237c76.204,0,138.201,14.91,138.201,33.237c0,4.387-3.566,8.677-10.601,12.756    c-1.47,2.288-4.101,7.561-4.74,16.712l0.106,0.166c5.132,3.034,7.758,6.239,7.758,9.478    C351.37,205.228,293.241,217.815,221.794,217.815L221.794,217.815z"
   id="path428" />
		<path
   d="M220.645,117.535c76.135,0,138.077,14.853,138.076,33.111c0,4.319-3.602,8.627-10.538,12.646    c-1.519,2.342-4.16,7.641-4.803,16.813l0.122,0.232c5.138,3.059,7.742,6.229,7.742,9.419c0,15.403-58.071,27.934-129.45,27.934    s-129.45-12.53-129.45-27.934c0-2.374,1.491-4.779,4.431-7.147l0.093-0.201c-0.353-12.585-4.513-18.765-5.78-20.359l-0.059-0.054    c-5.615-3.662-8.462-7.481-8.462-11.351C82.567,132.388,144.508,117.535,220.645,117.535 M220.645,117.285    c-36.842,0-71.521,3.45-97.648,9.715c-26.232,6.29-40.679,14.687-40.679,23.644c0,3.959,2.885,7.849,8.575,11.56l0.028,0.029    c1.225,1.547,5.334,7.655,5.697,20.123l-0.044,0.095c-2.972,2.407-4.479,4.864-4.479,7.306c0,7.58,13.55,14.678,38.155,19.987    c24.494,5.286,57.005,8.196,91.545,8.196c34.54,0,67.051-2.911,91.545-8.196c24.604-5.309,38.155-12.408,38.155-19.987    c0-3.273-2.626-6.502-7.804-9.598l-0.056-0.107c0.643-9.012,3.22-14.234,4.726-16.573c7.041-4.091,10.61-8.408,10.61-12.833    c0.001-8.958-14.446-17.355-40.679-23.646C292.165,120.736,257.486,117.285,220.645,117.285L220.645,117.285z"
   id="path430" />
	</g>
</g>
<radialGradient
   id="SVGID_33_"
   cx="182.4531"
   cy="495.7395"
   r="9.1496"
   gradientTransform="matrix(1.3966 0 0 -1.3966 -147.211 1005.832)"
   gradientUnits="userSpaceOnUse">
	<stop
   offset="0"
   style="stop-color:#FFDB7D"
   id="stop433" />
	<stop
   offset="1"
   style="stop-color:#EFBA3C"
   id="stop435" />
</radialGradient>

<radialGradient
   id="SVGID_34_"
   cx="-195.2993"
   cy="495.7385"
   r="9.1496"
   gradientTransform="matrix(-1.3966 0 0 -1.3966 51.0801 1005.832)"
   gradientUnits="userSpaceOnUse">
	<stop
   offset="0"
   style="stop-color:#FFDB7D"
   id="stop440" />
	<stop
   offset="1"
   style="stop-color:#EFBA3C"
   id="stop442" />
</radialGradient>

<path
   fill="#ED1C24"
   stroke="#000000"
   stroke-width="0.25"
   d="M108.199,195.508c0-7.464,50.408-13.518,112.589-13.518  c62.183,0,112.589,6.049,112.589,13.518c0,7.463-50.407,13.516-112.589,13.516C158.607,209.024,108.199,202.975,108.199,195.508z"
   id="path446" />
<g
   id="g448">
	<g
   id="g450">
		<linearGradient
   id="SVGID_35_"
   gradientUnits="userSpaceOnUse"
   x1="96.5313"
   y1="173.739"
   x2="343.751"
   y2="173.739">
			<stop
   offset="0"
   style="stop-color:#FDEBF3"
   id="stop453" />
			<stop
   offset="0.1124"
   style="stop-color:#F7EAF3"
   id="stop455" />
			<stop
   offset="0.2303"
   style="stop-color:#FAF1F2"
   id="stop457" />
			<stop
   offset="0.3539"
   style="stop-color:#FFFEF1"
   id="stop459" />
			<stop
   offset="0.4764"
   style="stop-color:#FBFBF1"
   id="stop461" />
			<stop
   offset="0.592"
   style="stop-color:#F0F3F2"
   id="stop463" />
			<stop
   offset="0.7045"
   style="stop-color:#DDE5F4"
   id="stop465" />
			<stop
   offset="0.7135"
   style="stop-color:#DBE4F4"
   id="stop467" />
			<stop
   offset="1"
   style="stop-color:#FEE9DF"
   id="stop469" />
		</linearGradient>
		<path
   fill="url(#SVGID_35_)"
   stroke="#000000"
   stroke-width="0.25"
   d="M235.006,164.936c76.789,0,99.712,9.255,104.218,10.825    c4.124,1.438,4.527,1.656,4.527,1.656l-0.25,2.917c0,0,0.007,0.021-0.077,0.021c-0.285,0-1.608-0.245-7.746-2.39    c-6.336-2.215-34.761-9.249-104.053-9.249c-3.25,0-6.6,0.016-10.029,0.048c-3.396-0.032-6.703-0.047-9.927-0.047    c-69.537,0-99.878,7.126-106.25,9.248c-7.188,2.395-8.669,4.577-8.669,4.577l-0.208-3.708c0,0-0.333-0.125,2.745-1.632    c4.304-2.108,31.825-12.26,109.846-12.259c4.016,0,8.175,0.027,12.463,0.083C226.24,164.965,230.705,164.936,235.006,164.936"
   id="path471" />
	</g>
</g>
<linearGradient
   id="SVGID_36_"
   gradientUnits="userSpaceOnUse"
   x1="207.1289"
   y1="151.0759"
   x2="233.873"
   y2="151.0759">
	<stop
   offset="0"
   style="stop-color:#FDEBF3"
   id="stop474" />
	<stop
   offset="0.1124"
   style="stop-color:#F7EAF3"
   id="stop476" />
	<stop
   offset="0.2303"
   style="stop-color:#FAF1F2"
   id="stop478" />
	<stop
   offset="0.3539"
   style="stop-color:#FFFEF1"
   id="stop480" />
	<stop
   offset="0.4764"
   style="stop-color:#FBFBF1"
   id="stop482" />
	<stop
   offset="0.592"
   style="stop-color:#F0F3F2"
   id="stop484" />
	<stop
   offset="0.7045"
   style="stop-color:#DDE5F4"
   id="stop486" />
	<stop
   offset="0.7135"
   style="stop-color:#DBE4F4"
   id="stop488" />
	<stop
   offset="1"
   style="stop-color:#FEE9DF"
   id="stop490" />
</linearGradient>
<polygon
   fill="url(#SVGID_36_)"
   stroke="#000000"
   stroke-width="0.25"
   points="233.873,151.795 220.355,160.135 207.129,150.645   220.932,142.017 "
   id="polygon492" />
<linearGradient
   id="SVGID_37_"
   gradientUnits="userSpaceOnUse"
   x1="219.5034"
   y1="554.76"
   x2="238.2217"
   y2="554.76"
   gradientTransform="matrix(1 0 0 -1 -8.3623 705.8345)">
	<stop
   offset="0"
   style="stop-color:#BE1349"
   id="stop495" />
	<stop
   offset="0.24"
   style="stop-color:#BE124E"
   id="stop497" />
	<stop
   offset="0.2528"
   style="stop-color:#BE124E"
   id="stop499" />
	<stop
   offset="0.478"
   style="stop-color:#F8ADAE"
   id="stop501" />
	<stop
   offset="0.5132"
   style="stop-color:#E8979D"
   id="stop503" />
	<stop
   offset="0.5967"
   style="stop-color:#C76A79"
   id="stop505" />
	<stop
   offset="0.6805"
   style="stop-color:#AB445A"
   id="stop507" />
	<stop
   offset="0.7633"
   style="stop-color:#962643"
   id="stop509" />
	<stop
   offset="0.8448"
   style="stop-color:#861132"
   id="stop511" />
	<stop
   offset="0.9244"
   style="stop-color:#7D0428"
   id="stop513" />
	<stop
   offset="1"
   style="stop-color:#7A0025"
   id="stop515" />
</linearGradient>
<polygon
   fill="url(#SVGID_37_)"
   stroke="#000000"
   stroke-width="0.25"
   points="229.859,151.579 220.398,157.416 211.141,150.772   220.802,144.733 "
   id="polygon517" />
<linearGradient
   id="SVGID_38_"
   gradientUnits="userSpaceOnUse"
   x1="139.6328"
   y1="154.9358"
   x2="160.4468"
   y2="154.9358">
	<stop
   offset="0"
   style="stop-color:#FDEBF3"
   id="stop520" />
	<stop
   offset="0.1124"
   style="stop-color:#F7EAF3"
   id="stop522" />
	<stop
   offset="0.2303"
   style="stop-color:#FAF1F2"
   id="stop524" />
	<stop
   offset="0.3539"
   style="stop-color:#FFFEF1"
   id="stop526" />
	<stop
   offset="0.4764"
   style="stop-color:#FBFBF1"
   id="stop528" />
	<stop
   offset="0.592"
   style="stop-color:#F0F3F2"
   id="stop530" />
	<stop
   offset="0.7045"
   style="stop-color:#DDE5F4"
   id="stop532" />
	<stop
   offset="0.7135"
   style="stop-color:#DBE4F4"
   id="stop534" />
	<stop
   offset="1"
   style="stop-color:#FEE9DF"
   id="stop536" />
</linearGradient>
<path
   fill="url(#SVGID_38_)"
   stroke="#000000"
   stroke-width="0.25"
   d="M160.417,153.867c0.294,3.01-1.635,5.684-4.304,5.962  l-11.072,1.142c-2.672,0.28-5.083-1.943-5.379-4.966l0,0c-0.292-3.013,1.635-5.68,4.307-5.958l11.067-1.146  C157.713,148.623,160.119,150.84,160.417,153.867L160.417,153.867z"
   id="path538" />
<linearGradient
   id="SVGID_39_"
   gradientUnits="userSpaceOnUse"
   x1="149.791"
   y1="550.8762"
   x2="167.0156"
   y2="550.8762"
   gradientTransform="matrix(1 0 0 -1 -8.3623 705.8345)">
	<stop
   offset="0"
   style="stop-color:#7CB23D"
   id="stop541" />
	<stop
   offset="0.1354"
   style="stop-color:#7EB440"
   id="stop543" />
	<stop
   offset="0.2341"
   style="stop-color:#86B949"
   id="stop545" />
	<stop
   offset="0.3213"
   style="stop-color:#94C259"
   id="stop547" />
	<stop
   offset="0.4012"
   style="stop-color:#A6CE6F"
   id="stop549" />
	<stop
   offset="0.4341"
   style="stop-color:#B0D57B"
   id="stop551" />
	<stop
   offset="0.5022"
   style="stop-color:#9BC16A"
   id="stop553" />
	<stop
   offset="0.6576"
   style="stop-color:#709947"
   id="stop555" />
	<stop
   offset="0.7979"
   style="stop-color:#527B2E"
   id="stop557" />
	<stop
   offset="0.9168"
   style="stop-color:#3F691E"
   id="stop559" />
	<stop
   offset="1"
   style="stop-color:#386319"
   id="stop561" />
</linearGradient>
<path
   fill="url(#SVGID_39_)"
   stroke="#000000"
   stroke-width="0.25"
   d="M158.639,154.239c0.185,2.216-1.46,4.161-3.675,4.349  l-9.174,0.766c-2.215,0.188-4.161-1.46-4.347-3.678l0,0c-0.184-2.215,1.462-4.161,3.677-4.345l9.169-0.767  C156.506,150.377,158.452,152.021,158.639,154.239L158.639,154.239z"
   id="path563" />
<path
   fill="#FFFFFF"
   stroke="#000000"
   stroke-width="0.25"
   d="M277.702,153.867c-0.296,3.01,1.636,5.684,4.306,5.962l11.072,1.142  c2.669,0.28,5.081-1.943,5.379-4.966l0,0c0.291-3.013-1.637-5.68-4.311-5.958l-11.063-1.146  C280.408,148.623,278,150.84,277.702,153.867L277.702,153.867z"
   id="path565" />
<linearGradient
   id="SVGID_40_"
   gradientUnits="userSpaceOnUse"
   x1="-144.6196"
   y1="550.8762"
   x2="-127.394"
   y2="550.8762"
   gradientTransform="matrix(-1 0 0 -1 152.0742 705.8345)">
	<stop
   offset="0"
   style="stop-color:#7CB23D"
   id="stop568" />
	<stop
   offset="0.1302"
   style="stop-color:#7EB440"
   id="stop570" />
	<stop
   offset="0.2252"
   style="stop-color:#86B949"
   id="stop572" />
	<stop
   offset="0.3091"
   style="stop-color:#94C259"
   id="stop574" />
	<stop
   offset="0.3859"
   style="stop-color:#A6CE6F"
   id="stop576" />
	<stop
   offset="0.4176"
   style="stop-color:#B0D57B"
   id="stop578" />
	<stop
   offset="0.4877"
   style="stop-color:#9BC16A"
   id="stop580" />
	<stop
   offset="0.6477"
   style="stop-color:#709947"
   id="stop582" />
	<stop
   offset="0.792"
   style="stop-color:#527B2E"
   id="stop584" />
	<stop
   offset="0.9144"
   style="stop-color:#3F691E"
   id="stop586" />
	<stop
   offset="1"
   style="stop-color:#386319"
   id="stop588" />
</linearGradient>
<path
   fill="url(#SVGID_40_)"
   stroke="#000000"
   stroke-width="0.25"
   d="M279.482,154.239c-0.186,2.217,1.461,4.161,3.676,4.349  l9.176,0.766c2.21,0.188,4.161-1.46,4.346-3.678l0,0c0.184-2.215-1.462-4.161-3.681-4.345l-9.168-0.767  C281.611,150.377,279.671,152.021,279.482,154.239L279.482,154.239z"
   id="path590" />
<g
   id="g592">
	<circle
   fill="#FFFFFF"
   stroke="#000000"
   stroke-width="0.25"
   cx="186.278"
   cy="152.37"
   r="8.052"
   id="circle594" />
	
		<linearGradient
   id="SVGID_41_"
   gradientUnits="userSpaceOnUse"
   x1="189.0034"
   y1="553.4651"
   x2="200.2773"
   y2="553.4651"
   gradientTransform="matrix(1 0 0 -1 -8.3623 705.8345)">
		<stop
   offset="0"
   style="stop-color:#00B8B5"
   id="stop597" />
		<stop
   offset="0.4231"
   style="stop-color:#B7E2E0"
   id="stop599" />
		<stop
   offset="1"
   style="stop-color:#00ADA8"
   id="stop601" />
	</linearGradient>
	<circle
   fill="url(#SVGID_41_)"
   stroke="#000000"
   stroke-width="0.25"
   cx="186.278"
   cy="152.37"
   r="5.637"
   id="circle603" />
</g>
<linearGradient
   id="SVGID_42_"
   gradientUnits="userSpaceOnUse"
   x1="113.0879"
   y1="161.572"
   x2="129.1919"
   y2="161.572">
	<stop
   offset="0"
   style="stop-color:#FDEBF3"
   id="stop606" />
	<stop
   offset="0.1124"
   style="stop-color:#F7EAF3"
   id="stop608" />
	<stop
   offset="0.2303"
   style="stop-color:#FAF1F2"
   id="stop610" />
	<stop
   offset="0.3539"
   style="stop-color:#FFFEF1"
   id="stop612" />
	<stop
   offset="0.4764"
   style="stop-color:#FBFBF1"
   id="stop614" />
	<stop
   offset="0.592"
   style="stop-color:#F0F3F2"
   id="stop616" />
	<stop
   offset="0.7045"
   style="stop-color:#DDE5F4"
   id="stop618" />
	<stop
   offset="0.7135"
   style="stop-color:#DBE4F4"
   id="stop620" />
	<stop
   offset="1"
   style="stop-color:#FEE9DF"
   id="stop622" />
</linearGradient>
<circle
   fill="url(#SVGID_42_)"
   stroke="#000000"
   stroke-width="0.25"
   cx="121.14"
   cy="161.572"
   r="8.052"
   id="circle624" />
<linearGradient
   id="SVGID_43_"
   gradientUnits="userSpaceOnUse"
   x1="122.7153"
   y1="543.4934"
   x2="133.9893"
   y2="543.4934"
   gradientTransform="matrix(1 0 0 -1 -8.3623 705.8345)">
	<stop
   offset="0"
   style="stop-color:#00B8B5"
   id="stop627" />
	<stop
   offset="0.2692"
   style="stop-color:#B7E2E0"
   id="stop629" />
	<stop
   offset="1"
   style="stop-color:#00ADA8"
   id="stop631" />
</linearGradient>
<circle
   fill="url(#SVGID_43_)"
   stroke="#000000"
   stroke-width="0.25"
   cx="119.99"
   cy="162.341"
   r="5.637"
   id="circle633" />
<linearGradient
   id="SVGID_44_"
   gradientUnits="userSpaceOnUse"
   x1="312.6709"
   y1="162.4358"
   x2="328.7754"
   y2="162.4358">
	<stop
   offset="0"
   style="stop-color:#FDEBF3"
   id="stop636" />
	<stop
   offset="0.1124"
   style="stop-color:#F7EAF3"
   id="stop638" />
	<stop
   offset="0.2303"
   style="stop-color:#FAF1F2"
   id="stop640" />
	<stop
   offset="0.3539"
   style="stop-color:#FFFEF1"
   id="stop642" />
	<stop
   offset="0.4764"
   style="stop-color:#FBFBF1"
   id="stop644" />
	<stop
   offset="0.592"
   style="stop-color:#F0F3F2"
   id="stop646" />
	<stop
   offset="0.7045"
   style="stop-color:#DDE5F4"
   id="stop648" />
	<stop
   offset="0.7135"
   style="stop-color:#DBE4F4"
   id="stop650" />
	<stop
   offset="1"
   style="stop-color:#FEE9DF"
   id="stop652" />
</linearGradient>
<circle
   fill="url(#SVGID_44_)"
   stroke="#000000"
   stroke-width="0.25"
   cx="320.723"
   cy="162.436"
   r="8.052"
   id="circle654" />
<linearGradient
   id="SVGID_45_"
   gradientUnits="userSpaceOnUse"
   x1="324.6953"
   y1="542.9202"
   x2="335.9668"
   y2="542.9202"
   gradientTransform="matrix(1 0 0 -1 -8.3623 705.8345)">
	<stop
   offset="0"
   style="stop-color:#00B8B5"
   id="stop657" />
	<stop
   offset="0.6868"
   style="stop-color:#B7E2E0"
   id="stop659" />
	<stop
   offset="1"
   style="stop-color:#00ADA8"
   id="stop661" />
</linearGradient>
<path
   fill="url(#SVGID_45_)"
   stroke="#000000"
   stroke-width="0.25"
   d="M316.333,162.914c0-3.112,2.525-5.638,5.635-5.638  c3.11,0,5.637,2.525,5.637,5.638c0,3.111-2.525,5.637-5.637,5.637C318.858,168.551,316.333,166.026,316.333,162.914z"
   id="path663" />
<linearGradient
   id="SVGID_46_"
   gradientUnits="userSpaceOnUse"
   x1="247.2451"
   y1="152.3699"
   x2="263.3516"
   y2="152.3699">
	<stop
   offset="0"
   style="stop-color:#FDEBF3"
   id="stop666" />
	<stop
   offset="0.1124"
   style="stop-color:#F7EAF3"
   id="stop668" />
	<stop
   offset="0.2303"
   style="stop-color:#FAF1F2"
   id="stop670" />
	<stop
   offset="0.3539"
   style="stop-color:#FFFEF1"
   id="stop672" />
	<stop
   offset="0.4764"
   style="stop-color:#FBFBF1"
   id="stop674" />
	<stop
   offset="0.592"
   style="stop-color:#F0F3F2"
   id="stop676" />
	<stop
   offset="0.7045"
   style="stop-color:#DDE5F4"
   id="stop678" />
	<stop
   offset="0.7135"
   style="stop-color:#DBE4F4"
   id="stop680" />
	<stop
   offset="1"
   style="stop-color:#FEE9DF"
   id="stop682" />
</linearGradient>
<circle
   fill="url(#SVGID_46_)"
   stroke="#000000"
   stroke-width="0.25"
   cx="255.298"
   cy="152.37"
   r="8.053"
   id="circle684" />
<linearGradient
   id="SVGID_47_"
   gradientUnits="userSpaceOnUse"
   x1="-93.1084"
   y1="553.4651"
   x2="-81.8379"
   y2="553.4651"
   gradientTransform="matrix(-1 0 0 -1 167.8252 705.8345)">
	<stop
   offset="0"
   style="stop-color:#00B8B5"
   id="stop687" />
	<stop
   offset="0.4505"
   style="stop-color:#B7E2E0"
   id="stop689" />
	<stop
   offset="1"
   style="stop-color:#00ADA8"
   id="stop691" />
</linearGradient>
<circle
   fill="url(#SVGID_47_)"
   stroke="#000000"
   stroke-width="0.25"
   cx="255.298"
   cy="152.37"
   r="5.635"
   id="circle693" />
<circle
   fill="#FFFFFF"
   stroke="#000000"
   stroke-width="0.25"
   cx="170.102"
   cy="145.684"
   r="1.51"
   id="circle695" />
<circle
   fill="#FFFFFF"
   stroke="#000000"
   stroke-width="0.25"
   cx="171.179"
   cy="161.572"
   r="1.51"
   id="circle697" />
<circle
   fill="#FFFFFF"
   stroke="#000000"
   stroke-width="0.25"
   cx="201.717"
   cy="160.05"
   r="1.51"
   id="circle699" />
<circle
   fill="#FFFFFF"
   stroke="#000000"
   stroke-width="0.25"
   cx="238.581"
   cy="160.051"
   r="1.51"
   id="circle701" />
<circle
   fill="#FFFFFF"
   stroke="#000000"
   stroke-width="0.25"
   cx="238.581"
   cy="143.821"
   r="1.51"
   id="circle703" />
<path
   fill="#FFFFFF"
   stroke="#000000"
   stroke-width="0.25"
   d="M272.05,145.899c0,0.834-0.674,1.511-1.51,1.511  c-0.837,0-1.511-0.677-1.511-1.511c0-0.833,0.674-1.51,1.511-1.51C271.376,144.389,272.05,145.066,272.05,145.899z"
   id="path705" />
<circle
   fill="#FFFFFF"
   stroke="#000000"
   stroke-width="0.25"
   cx="269.096"
   cy="161.616"
   r="1.51"
   id="circle707" />
<path
   fill="#FFFFFF"
   stroke="#000000"
   stroke-width="0.25"
   d="M306.635,165.28c0,0.834-0.673,1.511-1.51,1.511  c-0.836,0-1.51-0.677-1.51-1.511c0-0.833,0.674-1.51,1.51-1.51C305.962,163.77,306.635,164.446,306.635,165.28z"
   id="path709" />
<circle
   fill="#FFFFFF"
   stroke="#000000"
   stroke-width="0.25"
   cx="307.038"
   cy="152.282"
   r="1.51"
   id="circle711" />
<circle
   fill="#FFFFFF"
   stroke="#000000"
   stroke-width="0.25"
   cx="334.077"
   cy="160.022"
   r="1.51"
   id="circle713" />
<circle
   fill="#FFFFFF"
   stroke="#000000"
   stroke-width="0.25"
   cx="331.986"
   cy="171"
   r="1.51"
   id="circle715" />
<circle
   fill="#FFFFFF"
   stroke="#000000"
   stroke-width="0.25"
   cx="201.716"
   cy="143.82"
   r="1.51"
   id="circle717" />
<circle
   fill="#FFFFFF"
   stroke="#000000"
   stroke-width="0.25"
   cx="131.837"
   cy="152.425"
   r="1.51"
   id="circle719" />
<circle
   fill="#FFFFFF"
   stroke="#000000"
   stroke-width="0.25"
   cx="106.161"
   cy="160.009"
   r="1.51"
   id="circle721" />
<circle
   fill="#FFFFFF"
   stroke="#000000"
   stroke-width="0.25"
   cx="109.625"
   cy="170.237"
   r="1.51"
   id="circle723" />
<circle
   fill="#FFFFFF"
   stroke="#000000"
   stroke-width="0.25"
   cx="134.513"
   cy="164.749"
   r="1.51"
   id="circle725" />
<linearGradient
   id="SVGID_48_"
   gradientUnits="userSpaceOnUse"
   x1="92.25"
   y1="171.3337"
   x2="106.3291"
   y2="171.3337">
	<stop
   offset="0"
   style="stop-color:#FDEBF3"
   id="stop728" />
	<stop
   offset="0.1124"
   style="stop-color:#F7EAF3"
   id="stop730" />
	<stop
   offset="0.2303"
   style="stop-color:#FAF1F2"
   id="stop732" />
	<stop
   offset="0.3539"
   style="stop-color:#FFFEF1"
   id="stop734" />
	<stop
   offset="0.4764"
   style="stop-color:#FBFBF1"
   id="stop736" />
	<stop
   offset="0.592"
   style="stop-color:#F0F3F2"
   id="stop738" />
	<stop
   offset="0.7045"
   style="stop-color:#DDE5F4"
   id="stop740" />
	<stop
   offset="0.7135"
   style="stop-color:#DBE4F4"
   id="stop742" />
	<stop
   offset="1"
   style="stop-color:#FEE9DF"
   id="stop744" />
</linearGradient>
<polygon
   fill="url(#SVGID_48_)"
   stroke="#000000"
   stroke-width="0.25"
   points="96.667,178.792 106.329,166.605 92.25,163.875   93.167,165.5 102.735,167.468 96.208,175.708 "
   id="polygon746" />
<linearGradient
   id="SVGID_49_"
   gradientUnits="userSpaceOnUse"
   x1="98.8755"
   y1="535.2307"
   x2="111.9604"
   y2="535.2307"
   gradientTransform="matrix(1 0 0 -1 -8.3623 705.8345)">
	<stop
   offset="0"
   style="stop-color:#BE1349"
   id="stop749" />
	<stop
   offset="0.24"
   style="stop-color:#BE124E"
   id="stop751" />
	<stop
   offset="0.2528"
   style="stop-color:#BE124E"
   id="stop753" />
	<stop
   offset="0.4326"
   style="stop-color:#F8ADAE"
   id="stop755" />
	<stop
   offset="0.4708"
   style="stop-color:#E8979D"
   id="stop757" />
	<stop
   offset="0.5616"
   style="stop-color:#C76A79"
   id="stop759" />
	<stop
   offset="0.6527"
   style="stop-color:#AB445A"
   id="stop761" />
	<stop
   offset="0.7427"
   style="stop-color:#962643"
   id="stop763" />
	<stop
   offset="0.8313"
   style="stop-color:#861132"
   id="stop765" />
	<stop
   offset="0.9179"
   style="stop-color:#7D0428"
   id="stop767" />
	<stop
   offset="1"
   style="stop-color:#7A0025"
   id="stop769" />
</linearGradient>
<polygon
   fill="url(#SVGID_49_)"
   stroke="#000000"
   stroke-width="0.25"
   points="93.167,165.5 90.513,170.775 96.208,175.708   103.598,167.323 "
   id="polygon771" />
<linearGradient
   id="SVGID_50_"
   gradientUnits="userSpaceOnUse"
   x1="334.3828"
   y1="169.7175"
   x2="347.0371"
   y2="169.7175">
	<stop
   offset="0"
   style="stop-color:#FDEBF3"
   id="stop774" />
	<stop
   offset="0.1124"
   style="stop-color:#F7EAF3"
   id="stop776" />
	<stop
   offset="0.2303"
   style="stop-color:#FAF1F2"
   id="stop778" />
	<stop
   offset="0.3539"
   style="stop-color:#FFFEF1"
   id="stop780" />
	<stop
   offset="0.4764"
   style="stop-color:#FBFBF1"
   id="stop782" />
	<stop
   offset="0.592"
   style="stop-color:#F0F3F2"
   id="stop784" />
	<stop
   offset="0.7045"
   style="stop-color:#DDE5F4"
   id="stop786" />
	<stop
   offset="0.7135"
   style="stop-color:#DBE4F4"
   id="stop788" />
	<stop
   offset="1"
   style="stop-color:#FEE9DF"
   id="stop790" />
</linearGradient>
<polygon
   fill="url(#SVGID_50_)"
   stroke="#000000"
   stroke-width="0.25"
   points="343.719,177.719 334.383,166.605 346.175,161.716   347.037,163.586 337.979,167.468 344.018,175.089 "
   id="polygon792" />
<linearGradient
   id="SVGID_51_"
   gradientUnits="userSpaceOnUse"
   x1="-220.5635"
   y1="536.3733"
   x2="-207.4785"
   y2="536.3733"
   gradientTransform="matrix(-1 0 0 -1 129.6377 705.8345)">
	<stop
   offset="0"
   style="stop-color:#BE1349"
   id="stop795" />
	<stop
   offset="0.24"
   style="stop-color:#BE124E"
   id="stop797" />
	<stop
   offset="0.2528"
   style="stop-color:#BE124E"
   id="stop799" />
	<stop
   offset="0.4326"
   style="stop-color:#F8ADAE"
   id="stop801" />
	<stop
   offset="0.4708"
   style="stop-color:#E8979D"
   id="stop803" />
	<stop
   offset="0.5616"
   style="stop-color:#C76A79"
   id="stop805" />
	<stop
   offset="0.6527"
   style="stop-color:#AB445A"
   id="stop807" />
	<stop
   offset="0.7427"
   style="stop-color:#962643"
   id="stop809" />
	<stop
   offset="0.8313"
   style="stop-color:#861132"
   id="stop811" />
	<stop
   offset="0.9179"
   style="stop-color:#7D0428"
   id="stop813" />
	<stop
   offset="1"
   style="stop-color:#7A0025"
   id="stop815" />
</linearGradient>
<polygon
   fill="url(#SVGID_51_)"
   stroke="#000000"
   stroke-width="0.25"
   points="346.292,163.833 350.201,170.775 344.018,175.089   337.116,167.323 "
   id="polygon817" />
<g
   id="g819">
	<g
   id="g821">
		<linearGradient
   id="SVGID_52_"
   gradientUnits="userSpaceOnUse"
   x1="91.0835"
   y1="151.5906"
   x2="348.3125"
   y2="151.5906">
			<stop
   offset="0"
   style="stop-color:#FDEBF3"
   id="stop824" />
			<stop
   offset="0.1124"
   style="stop-color:#F7EAF3"
   id="stop826" />
			<stop
   offset="0.2303"
   style="stop-color:#FAF1F2"
   id="stop828" />
			<stop
   offset="0.3539"
   style="stop-color:#FFFEF1"
   id="stop830" />
			<stop
   offset="0.4764"
   style="stop-color:#FBFBF1"
   id="stop832" />
			<stop
   offset="0.592"
   style="stop-color:#F0F3F2"
   id="stop834" />
			<stop
   offset="0.7045"
   style="stop-color:#DDE5F4"
   id="stop836" />
			<stop
   offset="0.7135"
   style="stop-color:#DBE4F4"
   id="stop838" />
			<stop
   offset="1"
   style="stop-color:#FEE9DF"
   id="stop840" />
		</linearGradient>
		<path
   fill="url(#SVGID_52_)"
   stroke="#000000"
   stroke-width="0.25"
   d="M227.76,137.868    c85.008,0.001,112.386,17.117,116.361,20.184c3.848,3.167,4.191,5.323,4.191,5.323l-1.125,1.938c0,0-2.522-4.384-9.078-7.548    c-6.388-3.083-36.946-16.132-112.553-16.132c-1.984,0-10.109,0-12.099,0c-75.595,0.001-106.157,13.05-112.545,16.132    c-6.558,3.164-8.351,6.548-8.351,6.548l-1.475-2.264c0,0-0.284-0.833,3.816-3.997c3.972-3.066,31.335-20.186,116.356-20.184    C213.948,137.868,225.066,137.868,227.76,137.868"
   id="path842" />
	</g>
</g>
<path
   fill="none"
   stroke="#000000"
   stroke-width="0.25"
   d="M240.5,21c-1.377,5.859-8.203,7.869-11.701,12.059  c-3.521,4.218-4.381,9.3-5.135,14.5c-0.421,2.905-3.523,6.703-3.622,9.65"
   id="path844" />
<path
   fill="none"
   stroke="#000000"
   stroke-width="0.25"
   d="M220.042,57.208c-4.316-2.943-8.758-5.897-13.981-6.669  c-4.294-0.636-10.198-0.854-14.061,1.127"
   id="path846" />
<path
   fill="none"
   stroke="#000000"
   stroke-width="0.25"
   d="M199.833,61.167c-0.458-4.717,17.069-3.44,20.209-3.958"
   id="path848" />
<path
   fill="none"
   stroke="#000000"
   stroke-width="0.25"
   d="M201.5,84.833c3.789-2.562,6.851-9.014,7.397-13.498  c0.289-2.374-0.117-5.956,1.759-7.799c1.875-1.842,7.517-4.535,9.386-6.328"
   id="path850" />
<path
   fill="none"
   stroke="#000000"
   stroke-width="0.25"
   d="M200,21c1.377,5.859,8.203,7.869,11.701,12.059  c3.521,4.218,4.381,9.3,5.135,14.5c0.421,2.905,3.523,6.703,3.622,9.65"
   id="path852" />
<path
   fill="none"
   stroke="#000000"
   stroke-width="0.25"
   d="M220.458,57.208c4.315-2.943,8.758-5.897,13.981-6.669  c4.293-0.636,10.197-0.854,14.061,1.127"
   id="path854" />
<path
   fill="none"
   stroke="#000000"
   stroke-width="0.25"
   d="M240.667,61.167c0.458-4.717-17.069-3.44-20.209-3.958"
   id="path856" />
<path
   fill="none"
   stroke="#000000"
   stroke-width="0.25"
   d="M239,84.833c-3.789-2.562-6.852-9.014-7.396-13.498  c-0.289-2.374,0.117-5.956-1.76-7.799c-1.875-1.842-7.517-4.535-9.386-6.328"
   id="path858" />
<path
   d="m 216.76694,281.75083 c 1.835,2.545 4.59,5.538 5.846,8.341 1.838,4.103 1.926,7.924 7.514,8.076 1.219,-2.983 0.602,-6.302 1.021,-9.321 2.589,1.229 4.367,4.79 5.214,7.466 0.354,1.128 -0.326,2.516 0.129,3.68 3.137,8.048 9.729,-1.748 7.06,-6.594 2.866,0.855 3.276,5.433 2.647,7.896 -0.928,3.615 -2.271,8.563 1.446,10.082 3.854,1.579 4.224,-1.375 5.359,-4.514 1.165,-3.229 5.124,-7.747 4.094,-1.604 -0.646,3.865 -0.417,7.589 -1.496,11.396 -0.437,1.539 -1.546,3.434 -0.03,4.777 1.117,0.995 3.514,0.671 4.301,-0.614 0.543,-0.892 -0.031,-2.352 0.461,-3.02 0.851,-1.148 2.729,-0.564 3.556,-1.976 -2,3.415 -1.51,6.759 -2.897,10.295 -1.425,3.635 -4.947,4.771 0.93,5.19 4.025,0.287 3.74,-2.588 5.753,-3.451 2.013,-0.862 -2.302,6.902 -3.739,11.216 -1.437,4.314 -0.861,4.026 5.178,4.603 6.038,0.574 -8.053,7.477 -10.354,6.9 -2.301,-0.575 2.588,3.739 4.602,8.054 2.014,4.313 -4.602,-1.438 -6.902,1.438 -2.3,2.876 2.589,6.902 5.752,5.752 3.164,-1.15 -6.327,2.588 -4.313,4.889 2.013,2.302 6.902,1.15 8.052,3.164 1.151,2.014 -9.776,6.327 1.438,10.929 0,0 0.862,3.738 -7.188,4.026 v 6.327 c 0,0 -3.738,-5.177 -5.177,-2.876 -1.439,2.301 1.535,6.516 6.808,6.422 0,0 3.838,0.575 5.75,-2.301 1.916,-2.876 7.666,-9.585 7.285,-10.735 -0.383,-1.149 1.344,-1.149 5.178,6.902 0,0 1.912,2.489 3.832,-1.344 1.918,-3.833 3.455,-8.241 2.687,-9.392 0,0 3.065,-0.772 6.136,5.94 0,0 5.368,-4.026 3.449,-11.503 0,0 4.602,0.386 9.778,5.369 5.176,4.982 2.684,-9.396 -0.193,-10.354 -2.876,-0.958 2.684,-2.88 8.628,-0.192 5.944,2.687 -0.188,-11.504 -2.488,-11.887 -2.302,-0.382 1.53,-1.918 7.282,-1.149 5.752,0.768 -3.455,-11.122 -6.52,-10.162 -3.065,0.96 7.864,-3.451 8.438,-2.875 0.575,0.575 4.407,-5.177 -6.52,-4.792 -10.929,0.384 -8.058,-4.026 -14.572,-0.575 -6.517,3.451 -0.388,-6.518 4.026,-7.668 4.411,-1.149 -6.709,-8.053 -11.887,-6.902 -5.176,1.15 3.645,-5.944 6.902,-6.136 3.258,-0.19 -6.33,-9.584 -9.972,-9.394 -3.64,0.19 3.069,-4.221 9.396,-2.494 6.327,1.726 1.155,-2.684 -0.957,-4.792 -2.11,-2.11 -2.11,-7.862 -3.836,-9.587 -1.728,-1.727 4.986,-1.724 7.67,1.343 2.684,3.067 6.133,-11.503 4.025,-13.613 -2.107,-2.108 6.134,0.576 8.435,4.027 2.302,3.451 4.8,-7.48 3.263,-9.587 -1.537,-2.108 7.473,0.578 11.116,4.794 3.646,4.217 6.135,-5.176 4.026,-7.286 -2.107,-2.11 4.026,-0.573 6.901,7.861 2.876,8.435 6.521,1.531 6.521,-0.77 0,-2.3 1.537,-3.063 -0.382,-4.408 -1.919,-1.344 6.896,-0.387 5.365,10.735 -1.533,11.122 8.434,-0.957 6.902,-3.258 -1.533,-2.301 4.025,-0.961 3.645,13.611 -0.382,14.571 7.863,-0.958 7.67,-2.108 -0.193,-1.15 0.378,8.816 -1.537,13.036 -1.913,4.219 7.284,5.752 9.203,3.26 1.919,-2.492 -2.876,6.327 -4.982,9.778 -2.107,3.451 3.258,5.367 6.133,3.065 2.877,-2.3 0.962,6.904 -3.257,8.246 -4.221,1.341 1.153,7.666 5.942,5.56 4.792,-2.107 -0.386,5.37 -4.793,6.711 -4.408,1.341 -0.188,8.052 3.068,5.751 3.258,-2.3 2.49,4.598 -1.919,6.134 -4.408,1.537 -4.408,6.713 0,6.713 4.409,0 3.64,0.962 4.409,0 0.768,-0.961 -3.834,7.289 -8.437,8.052 -4.602,0.766 4.216,7.279 6.709,3.641 2.494,-3.641 -0.382,7.095 -8.434,9.396 0,0 -2.493,8.435 6.708,4.408 0,0 -3.45,5.375 -7.478,7.864 -4.024,2.488 1.15,6.712 5.176,4.601 -0.188,0.576 -2.11,5.177 -8.052,8.628 -5.94,3.451 4.225,8.245 6.14,4.602 0,0 -2.876,3.64 -6.902,8.435 0,0 -4.026,9.783 4.026,7.096 0,0 7.283,-3.647 6.708,-4.413 -0.575,-0.764 0.958,6.902 -1.726,11.504 0,0 4.605,1.914 4.22,8.628 0,0 -8.241,-4.796 -8.628,2.301 0,0 0.192,6.714 -1.726,7.096 -0.575,-0.193 -4.603,-9.773 -10.546,-2.107 l -2.301,4.79 c 0,0 -0.383,-8.24 -2.877,-9.967 -2.493,-1.726 -4.603,-0.193 -4.603,-0.193 0,0 0.194,-12.461 -2.875,-13.804 -3.069,-1.344 -2.305,-4.22 -2.494,-5.177 -0.188,-0.957 -2.679,8.623 -0.188,11.311 2.489,2.688 1.532,3.645 1.532,3.645 0,0 -5.945,3.833 -1.15,8.053 4.794,4.22 2.688,1.721 3.645,1.532 0,0 -11.313,8.058 -3.838,9.589 0,0 3.838,0.193 3.838,-1.726 0,0 -0.574,5.369 -4.22,9.203 0,0 -0.386,6.703 4.983,2.488 0,0 1.537,-0.764 1.537,-1.532 0,-0.768 -2.112,12.649 4.79,10.16 0,0 3.067,-1.537 7.095,-1.726 0,0 -2.688,5.939 -3.646,8.052 0,0 5.56,2.688 6.902,4.987 0,0 -4.602,2.107 -8.434,1.533 0,0 -4.022,3.833 0.768,5.752 l 2.301,0.574 c 0,0 -4.029,1.532 -9.014,1.149 0,0 -7.091,1.722 -1.533,7.284 0,0 -3.836,1.34 -8.819,-4.603 0,0 -5.753,-0.768 -5.56,4.603 0,0 -4.983,-3.262 -1.725,-6.326 0,0 -2.113,-6.709 -7.671,-0.382 0,0 -2.679,-3.259 1.536,-7.479 0,0 1.723,-4.602 -5.563,-5.177 0,0 -3.263,-1.919 0.574,-2.876 -0.188,-0.957 0.957,-6.709 -1.15,-8.627 0,0 0.188,-4.795 -1.725,-4.795 0,0 2.687,-3.838 -0.189,-6.902 0,0 -2.301,-15.146 -1.726,-19.556 0,0 -5.94,11.702 -1.727,19.367 0,0 0.766,3.833 -1.919,7.858 0,0 -3.063,8.054 3.069,9.203 0,0 -6.327,11.121 2.301,13.229 0,0 -0.962,5.172 -3.837,8.435 0,0 -2.301,8.245 3.068,5.369 0,0 2.488,-2.305 3.833,-1.918 0,0 -4.22,13.422 0,14.571 0,0 2.688,1.344 3.644,-2.876 0,0 0.958,-5.177 4.027,-4.603 0,0 -0.961,9.396 3.833,9.778 0,0 3.647,0.957 5.563,-3.068 0,0 1.723,6.524 -4.986,10.164 0,0 -4.217,6.129 5.563,3.641 0,0 -0.77,5.944 -8.821,5.369 0,0 -6.331,3.456 0.957,6.521 0,0 2.107,3.828 -6.327,2.489 0,0 -9.197,-1.914 -4.788,6.714 0,0 -3.456,0.57 -6.715,-4.988 0,0 -1.34,-6.516 -6.516,-2.683 0,0 -0.575,2.106 0,2.876 0,0 -3.834,0.575 -4.025,-9.778 0,0 -1.154,-4.987 -5.563,-2.493 0,0 -2.49,-5.559 -1.34,-9.585 0,0 -4.789,-5.37 -8.628,-5.37 0,0 -1.34,6.907 0,8.439 0,0 2.688,-2.688 4.603,3.833 0,0 -9.202,2.688 -4.795,9.396 0,0 5.563,2.489 8.245,-3.068 0,0 2.872,1.155 0.189,7.096 0,0 -1.914,7.859 8.819,4.983 0,0 0.382,3.258 -5.751,9.202 0,0 -2.881,6.321 5.559,3.833 0,0 0.574,4.602 -6.328,6.521 0,0 -6.129,4.983 3.839,4.026 0,0 -3.263,5.558 -9.972,2.301 0,0 -5.369,-1.344 -3.645,4.026 0,0 1.533,2.105 3.45,2.683 0,0 -8.438,1.729 -11.502,-4.216 0,0 -5.753,-0.956 -4.408,4.025 0,0 1.344,3.069 3.067,3.451 0,0 -11.31,-3.262 -15.528,-6.714 0,0 -7.101,-1.913 -2.688,4.795 0,0 10.354,7.67 11.123,7.67 0,0 -9.973,1.34 -5.752,7.86 0,0 4.406,4.604 4.982,4.794 0,0 -5.752,0.575 -9.203,-0.194 0,0 -8.047,-2.109 -1.914,7.86 0,0 -4.986,0.961 -8.82,-4.79 l -6.9,-6.714 c 0,0 -4.221,4.224 0.955,11.314 0,0 -5.172,2.297 -7.665,-0.387 0,0 -3.837,-1.146 -3.837,7.288 0,0 -2.494,3.064 -4.603,-5.945 0,0 -0.957,-4.981 -5.559,-0.382 -2.194,2.197 -3.142,2.862 -3.905,5.823 -0.454,1.763 -0.024,6.83 -2.23,7.118 -3.813,0.499 -3.226,-3.662 -3.617,-5.774 -0.663,-3.58 -1.794,-4.604 -4.358,-7.171 -4.6,-4.597 -5.557,0.386 -5.557,0.386 -2.107,9.011 -4.602,5.945 -4.602,5.945 0,-8.435 -3.837,-7.289 -3.837,-7.289 -2.494,2.684 -7.666,0.388 -7.666,0.388 5.176,-7.092 0.956,-11.314 0.956,-11.314 l -6.9,6.714 c -3.834,5.751 -8.821,4.79 -8.821,4.79 6.133,-9.971 -1.915,-7.86 -1.915,-7.86 -3.45,0.771 -9.202,0.194 -9.202,0.194 0.576,-0.188 4.983,-4.794 4.983,-4.794 4.218,-6.521 -5.752,-7.86 -5.752,-7.86 0.769,0 11.122,-7.67 11.122,-7.67 4.412,-6.708 -2.687,-4.795 -2.687,-4.795 -4.22,3.452 -15.53,6.714 -15.53,6.714 1.725,-0.382 3.068,-3.452 3.068,-3.452 1.344,-4.98 -4.408,-4.024 -4.408,-4.024 -3.064,5.943 -11.504,4.216 -11.504,4.216 1.919,-0.576 3.452,-2.683 3.452,-2.683 1.726,-5.37 -3.644,-4.026 -3.644,-4.026 -6.708,3.257 -9.971,-2.301 -9.971,-2.301 9.967,0.957 3.836,-4.026 3.836,-4.026 -6.901,-1.919 -6.327,-6.521 -6.327,-6.521 8.439,2.489 5.559,-3.832 5.559,-3.832 -6.133,-5.944 -5.751,-9.202 -5.751,-9.202 10.734,2.876 8.82,-4.983 8.82,-4.983 -2.683,-5.939 0.189,-7.096 0.189,-7.096 2.683,5.559 8.246,3.068 8.246,3.068 4.408,-6.708 -4.795,-9.396 -4.795,-9.396 1.915,-6.521 4.602,-3.833 4.602,-3.833 1.339,-1.532 0,-8.439 0,-8.439 -3.837,0 -8.627,5.37 -8.627,5.37 1.15,4.026 -1.339,9.585 -1.339,9.585 -4.408,-2.494 -5.563,2.493 -5.563,2.493 -0.192,10.354 -4.026,9.778 -4.026,9.778 0.576,-0.77 0,-2.876 0,-2.876 -5.176,-3.833 -6.515,2.683 -6.515,2.683 -3.258,5.56 -6.714,4.988 -6.714,4.988 4.409,-8.628 -4.79,-6.714 -4.79,-6.714 -8.434,1.339 -6.327,-2.489 -6.327,-2.489 7.288,-3.064 0.958,-6.521 0.958,-6.521 -8.051997,0.576 -8.820997,-5.368 -8.820997,-5.368 9.777997,2.488 5.562997,-3.641 5.562997,-3.641 -6.707997,-3.64 -4.986997,-10.164 -4.986997,-10.164 1.915,4.025 5.562997,3.068 5.562997,3.068 4.793,-0.382 3.832,-9.778 3.832,-9.778 3.07,-0.574 4.026,4.603 4.026,4.603 0.957,4.22 3.646,2.876 3.646,2.876 4.218,-1.149 0,-14.571 0,-14.571 1.343,-0.387 3.832,1.918 3.832,1.918 5.37,2.876 3.069,-5.369 3.069,-5.369 -2.875,-3.263 -3.836,-8.435 -3.836,-8.435 8.627,-2.107 2.299,-13.229 2.299,-13.229 6.134,-1.149 3.07,-9.203 3.07,-9.203 -2.683,-4.025 -1.919,-7.858 -1.919,-7.858 4.214,-7.665 -1.725,-19.367 -1.725,-19.367 0.574,4.408 -1.725,19.556 -1.725,19.556 -2.876,3.064 -0.19,6.902 -0.19,6.902 -1.913,0 -1.725,4.795 -1.725,4.795 -2.107,1.918 -0.961,7.67 -1.149,8.627 3.836,0.957 0.574,2.876 0.574,2.876 -7.284,0.575 -5.563,5.177 -5.563,5.177 4.216,4.22 1.537,7.479 1.537,7.479 -5.558,-6.327 -7.67,0.382 -7.67,0.382 3.258,3.063 -1.725997,6.326 -1.725997,6.326 0.192,-5.369 -5.559,-4.603 -5.559,-4.603 -4.983,5.941 -8.82,4.603 -8.82,4.603 5.558,-5.563 -1.533,-7.284 -1.533,-7.284 -4.983,0.383 -9.014,-1.149 -9.014,-1.149 l 2.3,-0.574 c 4.791,-1.92 0.769,-5.753 0.769,-5.753 -3.833,0.575 -8.434,-1.532 -8.434,-1.532 1.343,-2.301 6.902,-4.987 6.902,-4.987 -0.957,-2.111 -3.644,-8.052 -3.644,-8.052 4.026,0.188 7.095,1.726 7.095,1.726 6.902,2.489 4.79,-10.929 4.79,-10.16 0,0.77 1.537,1.532 1.537,1.532 5.37,4.215 4.983,-2.489 4.983,-2.489 -3.644,-3.833 -4.22,-9.202 -4.22,-9.202 0,1.919 3.838,1.726 3.838,1.726 7.477,-1.531 -3.838,-9.589 -3.838,-9.589 0.958,0.188 -1.149,2.688 3.644,-1.532 4.795,-4.22 -1.149,-8.053 -1.149,-8.053 0,0 -0.958,-0.957 1.532,-3.645 2.489,-2.688 0,-12.268 -0.188,-11.311 -0.189,0.957 0.576,3.833 -2.495,5.177 -3.068,1.343 -2.875,13.804 -2.875,13.804 0,0 -2.109,-1.531 -4.602,0.193 -2.495,1.726 -2.876,9.967 -2.876,9.967 l -2.301,-4.79 c -5.945,-7.666 -9.971,1.914 -10.546,2.107 -1.919,-0.382 -1.726,-7.097 -1.726,-7.097 -0.386,-7.096 -8.627001,-2.3 -8.627001,-2.3 -0.386,-6.714 4.220001,-8.628 4.220001,-8.628 -2.683,-4.602 -1.15,-12.268 -1.725,-11.504 -0.576,0.765 6.708,4.413 6.708,4.413 8.052,2.688 4.026,-7.096 4.026,-7.096 -4.026,-4.795 -6.902,-8.435 -6.902,-8.435 1.915,3.645 12.079,-1.149 6.139,-4.602 -5.941,-3.451 -7.864,-8.052 -8.053,-8.627 4.027,2.112 9.203,-2.112 5.177,-4.601 -4.026,-2.49 -7.477,-7.864 -7.477,-7.864 9.202,4.025 6.708,-4.408 6.708,-4.408 -8.053001,-2.301 -10.928001,-13.036 -8.435001,-9.396 2.494001,3.639 11.310001,-2.875 6.708001,-3.641 -4.601,-0.764 -9.202001,-9.014 -8.434001,-8.052 0.769,0.962 0,0 4.408001,0 4.408,0 4.408,-5.176 0,-6.713 -4.408001,-1.536 -5.176001,-8.435 -1.919,-6.134 3.258,2.301 7.477,-4.41 3.069,-5.751 -4.408001,-1.342 -9.585001,-8.819 -4.794001,-6.711 4.790001,2.106 10.164001,-4.218 5.945001,-5.56 -4.22,-1.341 -6.134001,-10.546 -3.257,-8.246 2.875,2.301 8.241,0.385 6.133,-3.065 -2.107,-3.451 -6.901,-12.271 -4.983,-9.778 1.919,2.491 11.117,0.959 9.203,-3.261 -1.914,-4.22 -1.343,-14.187 -1.537,-13.035 -0.193,1.149 8.053,16.68 7.67,2.107 -0.382,-14.572 5.177,-15.911 3.645,-13.61 -1.532,2.301 8.435,14.38 6.902,3.258 -1.532,-11.122 7.284,-12.078 5.365,-10.735 -1.919,1.344 -0.382,2.108 -0.382,4.408 0,2.301 3.644,9.203 6.521,0.77 2.875,-8.435 9.008997,-9.972 6.900997,-7.861 -2.106997,2.11 0.382,11.503 4.027,7.286 3.645,-4.217 12.654,-6.902 11.117,-4.794 -1.537,2.106 0.961,13.038 3.262,9.587 2.301,-3.451 10.541,-6.136 8.434,-4.027 -2.107,2.11 1.343,16.681 4.026,13.613 2.683,-3.066 9.396,-3.069 7.67,-1.343 -1.726,1.725 -1.726,7.477 -3.836,9.587 -2.113,2.108 -7.284,6.518 -0.958,4.792 6.327,-1.726 13.035,2.686 9.396,2.495 -3.64,-0.191 -13.229,9.203 -9.971,9.394 3.258,0.191 12.078,7.286 6.902,6.136 -5.177,-1.149 -16.298,5.752 -11.886,6.902 4.414,1.15 10.542,11.119 4.026,7.668 -6.515,-3.451 -3.644,0.959 -14.572,0.575 -10.928,-0.384 -7.095,5.367 -6.519,4.792 0.574,-0.576 11.502,3.835 8.438,2.875 -3.064,-0.96 -12.272,10.93 -6.519,10.162 5.751,-0.769 9.583,0.769 7.283,1.149 -2.301,0.382 -8.434,14.573 -2.489,11.887 5.945,-2.688 11.504,-0.766 8.628,0.192 -2.876,0.958 -5.37,15.336 -0.194,10.354 5.177,-4.983 9.779,-5.369 9.779,-5.369 -1.919,7.477 3.45,11.503 3.45,11.503 3.069,-6.713 6.133,-5.94 6.133,-5.94 -0.768,1.15 0.769,5.559 2.688,9.392 1.919,3.833 3.833,1.344 3.833,1.344 3.833,-8.052 5.559,-8.052 5.177,-6.902 -0.382,1.15 5.369,7.859 7.284,10.735 1.913,2.875 5.751,2.301 5.751,2.301 0,0 5.387,-4.121 0.786,-9.01 0,0 13.229,-1.438 7.478,-9.778 0,0 -6.902,0.288 -8.916,3.164 0,0 2.876,-3.164 1.725,-6.901 0,0 -6.039,-0.287 -6.901,-4.89 0,0 6.039,1.438 7.765,-1.726 0,0 2.013,-4.89 0.863,-7.766 0,0 1.725,-1.438 6.327,2.302 0,0 6.901,0.286 1.438,-5.465 0,0 -4.89,-2.876 -5.177,-6.326 0,0 11.504,3.45 12.366,-0.863 0,0 -4.313,-5.464 -4.313,-9.49 0,0 11.791,4.314 11.791,-3.451 0,0 -1.438,-3.163 -7.479,-2.588 0,0 1.151,-4.025 4.027,-6.901 0,0 2.875,-3.163 -1.727,-3.163 -0.861,-0.288 -5.176,3.163 -8.914,0.574 0,0 4.314,-4.025 2.875,-6.901 0,0 -0.861,-3.738 -7.764,-0.575 0,0 -6.903,2.301 -8.052,0.575 0,0 6.327,-3.163 4.313,-8.052 0,0 0.288,-2.59 -4.027,-1.15 0,0 -4.026,2.301 -7.477,-0.575 0,0 5.751,-2.013 5.463,-6.04 0,0 0.288,-4.889 -4.313,-4.601 0,0 -3.163,-1.15 -3.451,-4.313 0,0 7.19,-0.863 8.916,-2.013 0,0 3.45,-4.603 -1.438,-6.327 0,0 -3.452,-1.438 -4.027,-5.464 0,0 4.027,2.013 7.766,1.438 0,0 4.889,0.576 6.327,1.15 0,0 -2.877,-4.314 -0.288,-9.49 0,0 4.89,4.89 8.628,4.89 3.738,0 4.602,2.3 4.313,2.876 1.634,0.215 2.354,-0.761 2.817,-2.157 0.402,-1.22 -0.276,-2.554 -0.059,-3.786 0.265,-1.514 1.118,-2.723 1.268,-4.323 -0.364,3.971 3.533,6.842 6.062,9.027 2.251,1.946 0.479,3.602 1.694,5.491 3.082,4.792 5.08,-7.104 6.469,-8.454 0.313,1.408 1.083,2.567 1.59,3.913 0.688,1.814 0.525,3.431 0.568,5.396 0.098,4.361 1.577,6.854 6.293,6.352 0.691,-2.626 -0.923,-3.613 -1.104,-6.129 -0.172,-2.387 0.285,-4.888 0.285,-7.345"
   id="path118"
   style="fill:#ff020c" /><path
   d="m 258.46594,319.80383 c -1.271,0.973 -2.508,2.45 -4.225,1.892 -1.33,-0.431 -2.162,-1.88 -1.526,-3.042"
   id="path120"
   style="fill:none" /><path
   d="m 171.61594,480.99383 c 0,0 -4.026,18.406 -8.915,20.706 -4.89,2.301 -5.177,0.287 -6.472,-0.719 -1.293,-1.007 -5.606,-12.511 -9.634,-10.642 0,0 -2.013,4.603 -3.594,4.026 0,0 -2.733,4.17 6.758,8.483 0,0 7.045,2.443 5.463,4.602 0,0 0.432,1.725 -6.758,1.294 0,0 -10.353,-1.582 -12.223,3.02 -1.868,4.603 1.582,7.479 3.883,7.479 1.864,0 3.68,-0.589 5.363,-1.371 3.229,-1.505 9.147,-8.142 12.937,-5.117 3.55,2.83 -2.456,6.875 -3.986,8.853 -1.35,1.743 -2.6,6.089 0.641,6.552 4.026,0.575 4.889,1.15 7.045,-1.726 2.158,-2.876 1.582,-10.642 4.889,-12.799 3.308,-2.156 5.32,-2.443 11.36,-1.868 6.039,0.574 8.052,-0.72 8.052,-2.731 0,-2.014 1.151,-6.759 -4.169,-6.04 -5.321,0.72 -11.073,4.745 -11.792,2.877 -0.719,-1.87 8.196,-17.831 11.216,-20.132 0,0 -2.731,-6.327 -2.876,-8.483 10e-4,-0.003 -3.737,2.731 -7.188,3.736 z"
   id="path127"
   style="fill:url(#radialGradient4482);stroke:#231f20;stroke-width:0.25" /><path
   d="m 262.63494,481.42483 c 0,0 4.026,18.405 8.916,20.706 4.889,2.302 5.177,0.288 6.471,-0.719 1.296,-1.007 5.608,-12.51 9.636,-10.641 0,0 2.013,4.601 3.595,4.025 0,0 2.731,4.17 -6.759,8.483 0,0 -7.047,2.444 -5.465,4.602 0,0 -0.433,1.726 6.758,1.293 0,0 10.354,-1.581 12.224,3.021 1.868,4.601 -1.582,7.478 -3.883,7.478 -1.864,0 -3.681,-0.59 -5.365,-1.371 -3.226,-1.506 -9.146,-8.142 -12.933,-5.117 -3.551,2.831 2.453,6.875 3.98,8.853 1.354,1.743 2.604,6.089 -0.638,6.551 -4.026,0.576 -4.89,1.15 -7.046,-1.725 -2.156,-2.876 -1.582,-10.641 -4.891,-12.798 -3.307,-2.157 -5.32,-2.444 -11.358,-1.869 -6.039,0.575 -8.052,-0.72 -8.052,-2.731 0,-2.013 -1.151,-6.759 4.168,-6.039 5.32,0.719 11.074,4.744 11.793,2.876 0.719,-1.869 -8.196,-17.83 -11.217,-20.132 0,0 2.731,-6.326 2.877,-8.482 0.001,-10e-4 3.739,2.73 7.189,3.736 z"
   id="path134"
   style="fill:url(#radialGradient4480);stroke:#231f20;stroke-width:0.25" /><path
   d="m 255.14994,406.91983 c 3.487,-0.342 4.477,-1.51 7.891,-1.582 4.117,-0.09 7.742,-2.827 11.77,-3.55 4.297,-0.771 7.092,-0.822 10.727,-3.33 4.026,-2.771 7.48,-3.4 12.138,-4.624 6.83,-1.792 11.562,-9.157 16.198,-13.925 2.498,-2.593 6.205,-4.502 7.896,-7.72 1.964,-3.797 0.947,-8.385 1.919,-12.411 1.864,-7.616 8.728,-13.325 5.469,-21.697 0.08,0.221 -10.771,-1.857 -11.489,-2.161 -7.248,-2.979 -13.058,-9.803 -14.622,-17.267 -3.738,-17.83 9.306,-34.941 29.995,-32.688 12.359,1.346 21.235,10.321 26.142,18.43 4.684,7.751 6.396,16.956 8.13,25.646 1.954,9.821 4.272,19.957 2.457,29.84 -6.315,34.128 -5.715,49.617 -6.466,58.973 -1.109,13.67 10.681,16.747 10.681,16.747 0,0 -3.312,13.479 -15.951,4.301 -12.632,-9.176 -7.818,-33.271 -7.818,-34.991 0,-1.72 -11.729,11.471 -11.13,50.192 0.131,8.749 -0.936,33.086 13.776,32.637 1.556,-0.045 3.101,-0.463 4.537,-0.967 -3.167,9.742 -11.889,9.621 -19.223,3.324 -9.019,-9.75 -11.597,-25.814 -12.99,-35.894 -1.604,-11.508 -2.045,-42.984 -6.557,-32.371 0,0 -12.033,50.479 -7.822,80.024 0.996,6.974 3.712,31.495 15.578,30.133 1.663,-0.192 3.33,-1.051 4.786,-1.812 1.021,3.753 0.688,11.535 -4.426,13.842 -5.712,2.584 -12.991,-0.98 -15.938,-4.876 -5.869,-7.729 -7.872,-19.063 -9.899,-28.281 -2.272,-10.291 -3.515,-20.783 -4.34,-31.257 -0.644,-8.059 -0.979,-16.133 -1.105,-24.216 0,0 0,-7.455 -2.403,-0.288 0,0 -6.026,16.64 -6.319,24.382 0,0 -5.418,-31.836 -10.838,-31.549 0,0 -0.902,14.339 -0.902,20.076 0,0 -7.217,-14.056 -13.84,-20.076 -6.619,-6.025 -3.011,2.578 -3.011,2.578 0,0 3.919,19.221 13.841,30.115 0,0 -6.92,4.593 -15.942,-3.153 0,0 -2.405,17.785 -12.941,12.335 0,0 4.214,-5.163 2.718,-10.901 0,0 -4.516,0.863 -5.715,2.297 0,0 2.997,-16.636 -2.705,-21.224 -5.726,-4.592 -12.646,34.703 -11.141,41.013 0,0 11.438,5.162 1.809,15.776 0,0 -3.313,51.918 36.701,56.218 0,0 33.678,0 15.651,-20.644 0.026,0.036 12.932,-9.473 17.308,4.242 3.229,10.064 -4.008,19.964 -12.986,22.992 -11.678,3.941 -29.271,-0.229 -40.539,-4.079 -1.168,-0.399 -8.039,-2.53 -4.403,0.931 0,0 27.379,18.355 23.771,26.104 -3.606,7.742 -14.141,-1.722 -26.775,-22.374 0,0 -3.01,-3.729 -3.313,0.857 0,0 13.836,26.966 5.416,30.407 0,0 -9.932,6.598 -11.132,-26.103 0,0 0.903,-7.46 -4.514,-7.172 0,0 -2.708,-0.574 -1.2,8.03 0,0 7.821,29.544 -4.516,29.544 -12.335,0 -4.514,-29.544 -4.514,-29.544 1.505,-8.604 -1.202,-8.03 -1.202,-8.03 -5.417,-0.288 -4.512,7.172 -4.512,7.172 -1.204,32.699 -11.132,26.103 -11.132,26.103 -8.429,-3.441 5.414,-30.407 5.414,-30.407 -0.301,-4.587 -3.307,-0.857 -3.307,-0.857 -12.639,20.652 -23.169,30.116 -26.782,22.374 -3.609,-7.747 23.77,-26.104 23.77,-26.104 3.629,-3.461 -3.237,-1.33 -4.403,-0.931 -11.271,3.852 -28.856,8.021 -40.54,4.079 -8.985,-3.028 -16.212,-12.928 -12.993,-22.992 4.383,-13.715 17.28,-4.206 17.311,-4.242 -18.033,20.644 15.655,20.644 15.655,20.644 40.015,-4.3 36.704,-56.218 36.704,-56.218 -9.625,-10.614 1.806,-15.776 1.806,-15.776 1.506,-6.31 -5.412,-45.604 -11.135,-41.013 -5.713,4.588 -2.704,21.224 -2.704,21.224 -1.204,-1.434 -5.719,-2.297 -5.719,-2.297 -1.506,5.738 2.71,10.901 2.71,10.901 -10.531,5.45 -12.935,-12.335 -12.935,-12.335 -9.026,7.746 -15.95,3.153 -15.95,3.153 9.933,-10.896 13.843,-30.115 13.843,-30.115 0,0 3.607,-8.604 -3.007,-2.578 -6.625,6.021 -13.844,20.076 -13.844,20.076 0,-5.737 -0.9,-20.076 -0.9,-20.076 -5.417,-0.287 -10.83,31.549 -10.83,31.549 -0.302,-7.742 -6.32,-24.382 -6.32,-24.382 -2.408,-7.167 -2.408,0.288 -2.408,0.288 -0.13,8.082 -0.456,16.157 -1.105,24.216 -0.829,10.474 -2.077,20.966 -4.341,31.257 -2.024,9.22 -4.032,20.553 -9.895,28.281 -2.955,3.896 -10.23,7.46 -15.946,4.876 -5.109,-2.307 -5.441,-10.09 -4.418,-13.842 1.458,0.761 3.109,1.618 4.783,1.812 11.879,1.361 14.586,-23.159 15.582,-30.133 4.21,-29.545 -7.821,-80.024 -7.821,-80.024 -4.516,-10.613 -4.956,20.863 -6.553,32.371 -1.401,10.078 -3.977,26.144 -13.002997,35.894 -7.334,6.297 -16.045,6.417 -19.23,-3.324 1.453,0.504 2.991,0.922 4.543,0.967 14.71,0.449 13.645,-23.888 13.784,-32.637 0.598,-38.722 -11.133,-51.913 -11.133,-50.192 0,1.721 4.813,25.815 -7.823,34.991 -12.635,9.18 -15.945,-4.301 -15.945,-4.301 0,0 11.784,-3.077 10.684,-16.747 -0.757,-9.355 -0.151,-24.844 -6.473,-58.974 -1.829,-9.883 0.51,-20.018 2.467,-29.839 1.734,-8.689 3.435,-17.895 8.119,-25.646 4.905,-8.108 13.784,-17.084 26.142997,-18.431 20.691,-2.253 33.066,15.434 28.752,34.988 -1.642,7.448 -6.129,11.987 -13.361,14.966 -0.732,0.304 -11.594,2.382 -11.501,2.161 -3.262,8.372 3.604,14.081 5.459,21.697 0.979,4.026 -0.045,8.614 1.933,12.411 1.68,3.217 5.383,5.127 7.895,7.72 4.624,4.768 9.367,12.133 16.191,13.925 4.663,1.223 8.114,1.853 12.129,4.624 3.644,2.507 6.438,2.557 10.734,3.33 4.029,0.724 7.651,3.46 11.769,3.55 3.408,0.072 6.504,-1.339 10.005,-1.002 -0.708,-0.066 -0.268,-8.928 -0.218,-9.525 0.514,-6.18 2.436,-11.188 6.573,-15.831 -3.628,-0.104 -8.548,-0.117 -11.89,-1.46 2.441,-2.952 6.393,-5.248 9.328,-7.774 1.068,-0.917 9.516,-10.259 10.046,-10.149 l -4.511,-0.863 c 0,0 9.022,-6.884 9.022,-10.899 0,0 1.503,-8.316 1.204,-10.61 l -5.716,-0.86 c 0,0 4.813,-3.442 2.104,-9.465 l 2.709,-2.009 5.715,4.302 6.322,-1.148 v -7.169 l -1.507,-14.341 4.21,-0.86 c 0,0 4.814,-5.45 13.24,0 8.42,5.449 20.453,15.489 24.669,22.946 0,0 2.108,5.448 1.501,13.48 0,0 0.607,4.588 4.516,6.596 0,0 -0.908,2.867 -8.726,3.155 0,0 0.306,5.737 4.817,6.597 0,0 -6.912,1.721 -10.533,-1.146 0,0 -0.896,7.459 7.822,7.171 0,0 1.194,4.013 -3.308,4.588 0,0 4.502,7.172 6.019,12.904 1.504,5.738 3,5.451 4.812,5.738 1.808,0.288 -6.92,2.009 -15.646,-8.604 0,0 8.726,18.644 6.321,28.682 l 4.211,-0.86 z"
   id="path136"
   style="stroke:#000000;stroke-width:0.25" /><path
   d="m 146.59494,490.33983 c 0,0 -6.039,-4.889 -10.496,2.014 0,0 5.896,-0.862 6.902,2.014 10e-4,0 2.588,-0.288 3.594,-4.028 z"
   id="path143"
   style="fill:url(#radialGradient4478);stroke:#231f20;stroke-width:0.25" /><path
   d="m 136.24194,511.76583 c 0,0 -6.182,1.149 -6.182,7.908 0,0 3.307,-2.877 7.045,-1.295 0.001,0 -2.012,-3.305 -0.863,-6.613 z"
   id="path150"
   style="fill:url(#radialGradient4476);stroke:#231f20;stroke-width:0.25" /><path
   d="m 152.77894,526.86483 c 0,0 -3.738,6.183 2.157,9.634 0,0 1.581,-7.765 4.169,-7.909 0.001,-0.002 -5.032,0.575 -6.326,-1.725 z"
   id="path157"
   style="fill:url(#radialGradient4474);stroke:#231f20;stroke-width:0.25" /><path
   d="m 186.13794,504.28783 c 0,0 6.615,0.146 5.178,8.196 0,0 -1.87,-2.876 -5.033,-2.731 -0.001,0 0.862,-3.882 -0.145,-5.465 z"
   id="path164"
   style="fill:url(#radialGradient4472);stroke:#231f20;stroke-width:0.25" /><path
   d="m 287.65694,490.77283 c 0,0 3.162,-5.033 8.627,-1.007 0,0 -3.883,1.438 -5.032,5.032 -10e-4,0 -2.446,-1.006 -3.595,-4.025 z"
   id="path171"
   style="fill:url(#radialGradient4470);stroke:#231f20;stroke-width:0.25" /><path
   d="M 141.27494,482.71883"
   id="path178"
   style="fill:url(#radialGradient4468);stroke:#231f20;stroke-width:0.25" /><path
   d="m 298.00894,512.19783 c 0,0 7.333,2.3 7.621,7.188 0,0 -6.76,-2.589 -9.203,-0.574 0,0 2.73,-3.738 1.582,-6.614 z"
   id="path185"
   style="fill:url(#radialGradient4466);stroke:#231f20;stroke-width:0.25" /><path
   d="m 274.42694,528.87683 c 0,0 6.47,3.738 3.45,10.642 0,0 7.479,-2.731 3.163,-12.941 0,-10e-4 -2.011,2.874 -6.613,2.299 z"
   id="path192"
   style="fill:url(#radialGradient4464);stroke:#231f20;stroke-width:0.25" /><path
   d="m 247.39494,505.15183 c 0,0 -3.021,2.876 -2.157,6.901 0,0 2.014,-2.444 3.451,-0.575 0,0 -1.294,-4.744 -1.294,-6.326 z"
   id="path199"
   style="fill:url(#radialGradient4462);stroke:#231f20;stroke-width:0.25" /><path
   d="m 175.25994,302.91283 c -1.4,-6.453 0.397,-14.635 8.146,-15.41 0,0 11.504,-2.688 33.36,16.486 0,0 -3.834,4.988 -3.067,9.972 0.767,4.984 6.136,8.051 1.15,13.036 -4.986,4.986 -10.692,2.298 -14.165,-2.109 -3.474,-4.408 -13.443,-13.993 -16.894,-14.377 0,0 3.45,-4.603 19.556,11.119 1.867,1.822 6.91,4.006 7.739,0.283 0.893,-4.01 -2.762,-7.093 -5.524,-9.316 -3.896,-3.137 -7.569,-6.486 -10.953,-10.164 -2.631,-2.858 -5.999,-7.078 -10.394,-6.37 -4.258,0.687 -7.162,3.122 -8.954,6.85 z"
   id="path206"
   style="fill:url(#radialGradient4460);stroke:#231f20;stroke-width:0.25" /><path
   d="M 193.95194,302.83583"
   id="path213"
   style="fill:url(#radialGradient4458);stroke:#231f20;stroke-width:0.25" /><path
   d="m 196.63594,304.75283 c 0,0 -12.269,-6.711 -19.169,1.15 0,0.001 8.049,-3.067 19.169,-1.15 z"
   id="path215"
   style="fill:#ffffff;stroke:#231f20;stroke-width:0.25" /><path
   d="m 210.67694,301.68583 c 0,0 -2.685,1.537 0,5.37"
   id="path217"
   style="fill:none;stroke:#231f20;stroke-width:0.25" /><path
   d="m 225.58394,310.50883 c 0,0 -5.367,3.835 0,8.052 5.368,4.217 7.669,-1.15 7.669,-1.15 l -7.669,-6.902 z"
   id="path219"
   style="fill:#e7d479" /><circle
   cx="227.25999"
   cy="315.142"
   r="1.823"
   id="circle221"
   sodipodi:cx="227.25999"
   sodipodi:cy="315.142"
   sodipodi:rx="1.823"
   sodipodi:ry="1.823"
   transform="translate(1.0109455,0.347836)"
   style="fill:#231f20;stroke:#231f20;stroke-width:0.25" /><path
   d="m 146.88294,485.59483 c 0,0 0.576,-3.162 0.432,-5.752 0,0 2.301,2.589 4.314,3.309 0,0 4.745,-5.896 6.613,-11.503 0,0 1.151,1.149 1.439,2.875 0,0 2.013,-0.287 3.02,-1.438 0,0 -0.576,3.308 -3.452,8.771 0,0 4.746,2.875 7.478,2.301 0,0 -0.576,4.025 -6.615,4.313 0,0 4.171,3.883 1.438,8.483 0,0.001 -3.739,-7.62 -14.667,-11.359 z"
   id="path223"
   style="fill:#ffffff" /><path
   d="m 290.96294,485.59483 c 0,0 -0.575,-3.162 -0.433,-5.752 0,0 -2.301,2.589 -4.313,3.309 0,0 -4.744,-5.896 -6.613,-11.503 0,0 -1.149,1.149 -1.438,2.875 0,0 -2.012,-0.287 -3.02,-1.438 0,0 0.575,3.308 3.45,8.771 0,0 -4.744,2.875 -7.478,2.301 0,0 0.576,4.025 6.615,4.313 0,0 -4.17,3.883 -1.438,8.483 0.002,0.001 3.739,-7.62 14.668,-11.359 z"
   id="path225"
   style="fill:#ffffff" /><path
   d="m 202.05294,479.05183 c -0.563,1.209 -1.104,2.927 -2.61,3.083 -1.017,0.107 -2.49,-1.303 -3.025,-0.035 -0.521,1.23 1.592,3.108 1.755,4.301 0.188,1.388 -0.93,2.538 -1.814,3.496 -2.457,2.649 -5.205,2.815 -8.683,2.728 -1.937,-0.05 -3.105,0.311 -4.46,1.747 -0.905,0.962 -2.242,2.396 -1.104,3.582 2.339,2.444 7.827,0.045 10.014,-1.313 0.496,1.604 0.398,2.97 0.321,4.614 -0.09,1.968 0.49,3.446 1.293,5.212 1.562,3.425 1.6,6.099 -0.723,9.086 -0.792,1.024 -1.786,2.691 -3.163,2.948 -1.505,0.278 -2.817,-1.149 -4.354,-0.998 -3.807,0.377 -2.6,6.493 -5.979,6.89 -3.132,0.367 -3.29,-4.75 -6.514,-4.508 -4.21,0.318 -3.408,4.719 -2.09,7.198 0.51,0.962 1.792,3.235 0.862,4.311 -0.791,0.906 -2.423,0.059 -3.464,0.337 -1.703,0.458 -2.258,2.07 -2.183,3.685 0.045,0.984 1.316,3.379 0.013,3.928 -0.708,0.302 -1.72,-0.57 -2.296,-0.854 -0.825,-0.404 -1.905,-0.777 -2.845,-0.603 -1.688,0.311 -2.621,1.853 -2.511,3.506 0.321,4.835 5.812,4.115 8.438,6.668 1.394,1.353 0.216,2.935 -0.819,4.106 -1.683,1.904 -3.777,3.546 -4.877,5.9 -0.721,1.541 -1.07,3.851 0.435,5.077 1.297,1.061 2.84,0.282 3.865,-0.751 1.601,-1.612 2.437,-3.847 3.625,-5.747 0.715,-1.146 3.696,-5.405 5.014,-2.629 0.983,2.076 -0.878,4.961 -1.521,6.875 -0.315,0.943 -0.773,2.414 -0.398,3.414 1.021,2.715 4.54,0.832 6.095,-0.623 3.847,-3.601 3.921,-12.003 4.101,-14.843 1.049,2.022 2.117,9.153 5.596,8.618 3.921,-0.602 2.988,-5.006 1.01,-6.934 -1.148,-1.118 -1.822,-1.905 -1.781,-3.59 2.931,1.985 10.498,3.635 10.373,-1.663 -0.059,-2.417 -1.926,-3.681 -3.505,-5.162 -1.453,-1.362 -2.912,-3.955 0.344,-3.38 2.205,0.387 6.188,-1.285 6.694,-3.698 0.366,-1.743 -2.054,-4.557 -3.574,-5.149 -0.598,-0.232 -3.043,-0.216 -2.979,-1.268 0.053,-0.889 2.056,-0.831 2.632,-0.966 2.49,-0.579 4.907,-2.089 4.861,-4.83 -0.045,-2.539 -0.516,-3.475 -2.207,-5.23 -1.562,-1.622 -1.52,-4.7 -1.726,-6.889 -0.2,-2.145 -0.034,-5.459 0.765,-7.509 0.37,-0.952 1.378,-1.783 1.412,-2.862 0.038,-1.118 -1.061,-1.812 -1.123,-2.885 -0.108,-1.797 2.031,-2.745 2.949,-4.009 0.875,-1.199 0.815,-2.363 0.94,-3.773 0.194,-2.211 1.235,-6.844 -1.364,-8.034"
   id="path227"
   style="fill:#ffffff" /><path
   d="m 232.82494,479.05183 c 0.565,1.209 1.105,2.927 2.615,3.083 1.016,0.107 2.489,-1.303 3.021,-0.035 0.521,1.23 -1.593,3.108 -1.752,4.301 -0.189,1.388 0.93,2.538 1.813,3.496 2.454,2.649 5.203,2.815 8.682,2.728 1.938,-0.05 3.105,0.311 4.459,1.747 0.906,0.962 2.246,2.396 1.104,3.582 -2.336,2.444 -7.826,0.045 -10.012,-1.313 -0.494,1.604 -0.396,2.97 -0.323,4.614 0.091,1.968 -0.485,3.446 -1.294,5.212 -1.561,3.425 -1.6,6.099 0.729,9.086 0.791,1.024 1.783,2.691 3.164,2.948 1.5,0.278 2.813,-1.149 4.35,-0.998 3.811,0.377 2.604,6.493 5.98,6.89 3.133,0.367 3.289,-4.75 6.51,-4.508 4.217,0.318 3.412,4.719 2.096,7.198 -0.514,0.962 -1.793,3.235 -0.863,4.311 0.791,0.906 2.428,0.059 3.465,0.337 1.703,0.458 2.262,2.07 2.186,3.685 -0.045,0.984 -1.317,3.379 -0.014,3.928 0.709,0.302 1.715,-0.57 2.295,-0.854 0.822,-0.404 1.904,-0.777 2.845,-0.603 1.69,0.311 2.625,1.853 2.513,3.506 -0.318,4.835 -5.811,4.115 -8.439,6.668 -1.393,1.353 -0.215,2.935 0.822,4.106 1.682,1.904 3.775,3.546 4.877,5.9 0.723,1.541 1.068,3.851 -0.438,5.077 -1.294,1.061 -2.84,0.282 -3.863,-0.751 -1.602,-1.612 -2.438,-3.847 -3.627,-5.747 -0.715,-1.146 -3.697,-5.405 -5.011,-2.629 -0.988,2.076 0.877,4.961 1.521,6.875 0.313,0.943 0.772,2.414 0.396,3.414 -1.021,2.715 -4.539,0.832 -6.095,-0.623 -3.846,-3.601 -3.918,-12.003 -4.099,-14.843 -1.051,2.022 -2.12,9.153 -5.598,8.618 -3.919,-0.602 -2.988,-5.006 -1.007,-6.934 1.146,-1.118 1.818,-1.905 1.779,-3.59 -2.93,1.985 -10.498,3.635 -10.371,-1.663 0.054,-2.417 1.924,-3.681 3.504,-5.162 1.447,-1.362 2.912,-3.955 -0.346,-3.38 -2.205,0.387 -6.188,-1.285 -6.695,-3.698 -0.362,-1.743 2.054,-4.557 3.572,-5.149 0.603,-0.232 3.047,-0.216 2.984,-1.268 -0.055,-0.889 -2.059,-0.831 -2.635,-0.966 -2.489,-0.579 -4.906,-2.089 -4.861,-4.83 0.045,-2.539 0.512,-3.475 2.207,-5.23 1.559,-1.622 1.518,-4.7 1.727,-6.889 0.2,-2.145 0.03,-5.459 -0.765,-7.509 -0.374,-0.952 -1.381,-1.783 -1.416,-2.862 -0.037,-1.118 1.06,-1.812 1.124,-2.885 0.107,-1.797 -2.031,-2.745 -2.949,-4.009 -0.871,-1.199 -0.818,-2.363 -0.938,-3.773 -0.194,-2.211 -1.236,-6.844 1.359,-8.034"
   id="path229"
   style="fill:#ffffff" /><path
   d="m 184.79494,415.95483 c 0,0 -27.488,0.378 -71.548,-28.38 -44.057997,-28.758 -48.708997,-37.575 -48.708997,-37.575 0,0 -2.107,2.494 1.818,19.169 0,0 61.843997,41.421 121.267997,52.538 -0.001,0 -1.615,-1.15 -2.829,-5.752 z"
   id="path236"
   style="fill:url(#radialGradient4456)" /><path
   d="m 249.66794,415.95483 c 0,0 27.485,0.378 71.549,-28.38 44.055,-28.758 49.313,-37.959 49.313,-37.959 0,0 1.532,5.562 -2.423,19.554 0,0 -61.844,41.421 -121.266,52.538 0,-10e-4 1.613,-1.151 2.827,-5.753 z"
   id="path243"
   style="fill:url(#radialGradient4454)" /><path
   d="m 120.04394,305.59083 c 0,-2.912 -2.362,-5.275 -5.274,-5.275 -2.403,0 -4.349,1.645 -4.983,3.842 -0.462,-2.44 -2.507,-4.324 -5.082,-4.324 -2.912,0 -5.272,2.364 -5.272,5.275 0,2.679 2.031,4.804 4.619,5.141 l -0.019,0.036 c 0,0 -8.339997,5.751 -6.612997,17.542 0,0 5.868997,-8.924 11.341997,-12.137 0.799,1.892 2.676,3.222 4.859,3.222 2.912,0 5.272,-2.358 5.272,-5.271 0,-1.402 -0.569,-2.66 -1.461,-3.604 1.534,-0.924 2.612,-2.528 2.612,-4.447 z"
   id="path437"
   style="fill:url(#radialGradient4452)" /><path
   d="m 313.41694,305.59083 c 0,-2.912 2.357,-5.275 5.27,-5.275 2.409,0 4.353,1.645 4.989,3.842 0.458,-2.44 2.507,-4.323 5.077,-4.323 2.912,0 5.274,2.363 5.274,5.275 0,2.679 -2.03,4.804 -4.618,5.141 l 0.018,0.036 c 0,0 8.34,5.751 6.615,17.542 0,0 -5.869,-8.924 -11.342,-12.137 -0.802,1.892 -2.68,3.222 -4.862,3.222 -2.911,0 -5.271,-2.358 -5.271,-5.271 0,-1.402 0.569,-2.66 1.46,-3.604 -1.533,-0.925 -2.61,-2.529 -2.61,-4.448 z"
   id="path444"
   style="fill:url(#radialGradient4450)" /></svg>