<svg height="512pt" viewBox="-48 0 512 512" width="512pt" xmlns="http://www.w3.org/2000/svg"><path d="m64 32h288c35.347656 0 64 28.652344 64 64v352c0 35.347656-28.652344 64-64 64h-288c-35.347656 0-64-28.652344-64-64v-352c0-35.347656 28.652344-64 64-64zm0 0" fill="#bfc9d1"/><path d="m278.625 480h-214.625c-17.671875 0-32-14.328125-32-32v-352c0-17.671875 14.328125-32 32-32h288c17.671875 0 32 14.328125 32 32v278.625zm0 0" fill="#e4edfb"/><path d="m278.625 374.625v105.375l105.375-105.375zm0 0" fill="#d7e1f2"/><path d="m256 96h-96c-17.671875 0-32-14.328125-32-32v-64h160v64c0 17.671875-14.328125 32-32 32zm0 0" fill="#ffda6b"/><path d="m224 288h-32v-112c0-8.835938 7.164062-16 16-16s16 7.164062 16 16zm0 0" fill="#ff7761"/><path d="m192 320h32v32h-32zm0 0" fill="#ff7761"/><path d="m256 64h-96c-17.671875 0-32-14.328125-32-32v32c0 17.671875 14.328125 32 32 32h96c17.671875 0 32-14.328125 32-32v-32c0 17.671875-14.328125 32-32 32zm0 0" fill="#f5cd00"/></svg>