<svg enable-background="new 0 0 47 58" height="512" viewBox="0 0 47 58" width="512" xmlns="http://www.w3.org/2000/svg"><path d="m44.375 6h-10.375-20-11.375c-1.45 0-2.625 1.175-2.625 2.625v46.75c0 1.45 1.175 2.625 2.625 2.625h41.75c1.45 0 2.625-1.175 2.625-2.625v-46.75c0-1.45-1.175-2.625-2.625-2.625z" fill="#9e6c53"/><path d="m34 10v2h-20v-2h-10v44h29l5-5 5-5v-34z" fill="#f7e6a1"/><path d="m28 4c0-2.209-1.791-4-4-4s-4 1.791-4 4h-6v8h20v-8z" fill="#cdd2d3"/><path d="m24 8c-.552 0-1-.448-1-1v-3c0-.552.448-1 1-1s1 .448 1 1v3c0 .552-.448 1-1 1z" fill="#7a8389"/><g fill="#c9b875"><path d="m38 49-5 5v-10h10z"/><path d="m28 39h-11c-.552 0-1-.448-1-1s.448-1 1-1h11c.552 0 1 .448 1 1s-.448 1-1 1z"/><path d="m38 39h-6c-.552 0-1-.448-1-1s.448-1 1-1h6c.552 0 1 .448 1 1s-.448 1-1 1z"/><path d="m13 39h-4c-.552 0-1-.448-1-1s.448-1 1-1h4c.552 0 1 .448 1 1s-.448 1-1 1z"/><path d="m28 49h-11c-.552 0-1-.448-1-1s.448-1 1-1h11c.552 0 1 .448 1 1s-.448 1-1 1z"/><path d="m13 49h-4c-.552 0-1-.448-1-1s.448-1 1-1h4c.552 0 1 .448 1 1s-.448 1-1 1z"/><path d="m20 44h-11c-.552 0-1-.448-1-1s.448-1 1-1h11c.552 0 1 .448 1 1s-.448 1-1 1z"/><path d="m28 44h-4c-.552 0-1-.448-1-1s.448-1 1-1h4c.552 0 1 .448 1 1s-.448 1-1 1z"/><path d="m32 34h-6c-.552 0-1-.448-1-1s.448-1 1-1h6c.552 0 1 .448 1 1s-.448 1-1 1z"/><path d="m38 34h-2c-.552 0-1-.448-1-1s.448-1 1-1h2c.552 0 1 .448 1 1s-.448 1-1 1z"/><path d="m38 29h-6c-.552 0-1-.448-1-1s.448-1 1-1h6c.552 0 1 .448 1 1s-.448 1-1 1z"/><path d="m28 29h-2c-.552 0-1-.448-1-1s.448-1 1-1h2c.552 0 1 .448 1 1s-.448 1-1 1z"/><path d="m32 24h-6c-.552 0-1-.448-1-1s.448-1 1-1h6c.552 0 1 .448 1 1s-.448 1-1 1z"/><path d="m38 24h-2c-.552 0-1-.448-1-1s.448-1 1-1h2c.552 0 1 .448 1 1s-.448 1-1 1z"/><path d="m38 19h-6c-.552 0-1-.448-1-1s.448-1 1-1h6c.552 0 1 .448 1 1s-.448 1-1 1z"/><path d="m28 19h-2c-.552 0-1-.448-1-1s.448-1 1-1h2c.552 0 1 .448 1 1s-.448 1-1 1z"/></g><circle cx="15" cy="24" fill="#dd352e" r="7"/><path d="m15 28c-.552 0-1-.448-1-1v-6c0-.552.448-1 1-1s1 .448 1 1v6c0 .552-.448 1-1 1z" fill="#fff"/><path d="m18 25h-6c-.552 0-1-.448-1-1s.448-1 1-1h6c.552 0 1 .448 1 1s-.448 1-1 1z" fill="#fff"/></svg>