<?xml version="1.0" standalone="no"?>
<!DOCTYPE svg PUBLIC "-//W3C//DTD SVG 20010904//EN"
 "http://www.w3.org/TR/2001/REC-SVG-20010904/DTD/svg10.dtd">
<svg version="1.0" xmlns="http://www.w3.org/2000/svg"
 width="512.000000pt" height="512.000000pt" viewBox="0 0 512.000000 512.000000"
 preserveAspectRatio="xMidYMid meet">
<metadata>
Created by potrace 1.11, written by Peter Selinger 2001-2013
</metadata>
<g transform="translate(0.000000,512.000000) scale(0.100000,-0.100000)"
fill="#000000" stroke="none">
<path d="M1456 4764 c-541 -73 -911 -302 -1129 -695 -117 -212 -173 -522 -148
-818 27 -326 85 -500 264 -798 l62 -103 436 0 437 0 15 43 c68 195 502 1399
514 1425 23 48 66 67 115 53 21 -7 45 -23 54 -36 13 -20 32 -209 94 -925 42
-495 79 -902 81 -904 2 -3 69 229 148 515 133 478 147 522 174 545 40 34 90
32 126 -3 24 -25 36 -66 106 -375 44 -192 82 -348 85 -348 3 0 67 260 142 578
132 553 139 578 168 605 50 44 118 31 148 -29 6 -11 56 -344 112 -740 55 -395
102 -726 103 -734 3 -16 8 -4 62 174 26 84 45 126 62 142 l26 24 539 0 538 0
37 57 c64 100 162 291 197 386 123 329 124 806 1 1130 -124 329 -381 579 -740
720 -179 70 -477 127 -663 127 -310 -1 -666 -121 -919 -311 -29 -21 -55 -39
-58 -39 -3 0 -29 18 -58 39 -318 239 -739 349 -1131 295z"/>
<path d="M1931 3309 c-5 -22 -376 -1052 -391 -1087 -32 -72 -32 -72 -490 -72
l-401 0 63 -77 c147 -183 280 -326 562 -608 333 -332 843 -828 945 -919 143
-127 304 -205 421 -206 109 0 228 48 352 141 137 102 1259 1205 1434 1409 113
132 214 257 214 264 0 3 -184 6 -410 6 -225 0 -410 -2 -410 -4 0 -2 -45 -150
-100 -328 -88 -284 -103 -326 -130 -350 -17 -16 -42 -28 -56 -28 -38 0 -80 26
-93 57 -6 15 -54 334 -106 708 -52 374 -96 684 -98 688 -1 4 -58 -228 -126
-515 -68 -288 -130 -535 -138 -550 -7 -15 -22 -32 -32 -38 -34 -18 -88 -12
-115 13 -29 24 -29 26 -137 494 -34 150 -64 271 -66 269 -2 -2 -78 -270 -168
-596 -91 -326 -171 -603 -179 -615 -22 -34 -78 -50 -112 -33 -64 31 -57 -17
-144 998 -76 894 -85 993 -89 979z"/>
</g>
</svg>
