<?xml version="1.0" standalone="no"?>
<!DOCTYPE svg PUBLIC "-//W3C//DTD SVG 20010904//EN"
 "http://www.w3.org/TR/2001/REC-SVG-20010904/DTD/svg10.dtd">
<svg version="1.0" xmlns="http://www.w3.org/2000/svg"
 width="512.000000pt" height="512.000000pt" viewBox="0 0 512.000000 512.000000"
 preserveAspectRatio="xMidYMid meet">
<metadata>
Created by potrace 1.11, written by Peter Selinger 2001-2013
</metadata>
<g transform="translate(0.000000,512.000000) scale(0.100000,-0.100000)"
fill="#000000" stroke="none">
<path d="M2336 5104 c-172 -42 -325 -194 -372 -369 -10 -37 -14 -134 -14 -367
0 -175 -3 -318 -8 -318 -4 0 -104 97 -222 215 -225 226 -269 261 -366 296 -78
29 -242 32 -326 6 -106 -33 -253 -150 -370 -294 -97 -118 -124 -196 -122 -348
1 -111 22 -184 74 -264 16 -25 126 -143 245 -261 118 -118 215 -218 215 -222
0 -5 -143 -8 -317 -8 -234 0 -331 -4 -368 -14 -178 -47 -328 -200 -369 -376
-21 -89 -21 -351 0 -440 41 -176 191 -329 369 -376 37 -10 134 -14 368 -14
174 0 317 -3 317 -8 0 -4 -97 -104 -215 -222 -119 -118 -229 -236 -245 -261
-52 -80 -73 -153 -74 -264 -2 -152 25 -230 122 -348 117 -144 264 -261 370
-294 84 -26 248 -23 326 6 97 35 141 70 366 296 118 118 218 215 222 215 5 0
8 -143 8 -317 0 -234 4 -331 14 -368 47 -178 200 -328 376 -369 89 -21 351
-21 440 0 176 41 329 191 376 369 10 37 14 134 14 368 0 174 3 317 8 317 4 0
104 -97 222 -215 118 -119 236 -229 261 -245 83 -54 152 -73 269 -74 180 -1
271 44 441 213 169 170 214 261 213 441 -1 117 -20 186 -74 269 -16 25 -126
143 -245 261 -118 118 -215 218 -215 222 0 5 143 8 318 8 233 0 330 4 367 14
178 47 328 200 369 376 11 44 16 116 16 220 0 104 -5 176 -16 220 -41 176
-191 329 -369 376 -37 10 -134 14 -367 14 -175 0 -318 3 -318 8 0 4 97 104
215 222 119 118 229 236 245 261 97 150 104 357 16 524 -43 83 -258 298 -341
341 -167 88 -374 81 -524 -16 -25 -16 -143 -126 -261 -245 -118 -118 -218
-215 -222 -215 -5 0 -8 143 -8 318 0 233 -4 330 -14 367 -47 178 -200 328
-376 369 -86 21 -360 20 -444 0z m314 -1460 c34 -17 77 -63 89 -97 15 -39 14
-111 -3 -151 -7 -18 -31 -47 -52 -65 l-39 -33 33 6 c68 12 102 37 152 111 88
131 130 143 220 63 27 -24 87 -78 135 -120 193 -172 395 -268 564 -268 28 0
51 -4 51 -9 0 -19 -53 -72 -96 -97 -32 -19 -64 -28 -112 -31 -46 -3 -83 -13
-117 -31 -40 -21 -63 -26 -115 -25 -36 0 -78 6 -93 12 -22 9 -34 8 -57 -4 -49
-25 -104 -29 -163 -10 -49 15 -57 15 -84 2 -49 -26 -95 -30 -145 -13 -41 14
-50 15 -80 2 -18 -8 -45 -17 -60 -21 l-28 -5 0 -205 c0 -113 1 -205 3 -205 29
2 365 96 422 119 95 38 113 51 91 63 -31 17 -121 28 -253 29 -89 1 -149 6
-170 14 -43 18 -53 57 -26 93 l20 27 199 0 c271 -1 385 -30 441 -114 62 -92
-5 -180 -194 -253 -61 -24 -345 -98 -375 -98 -4 0 12 -20 37 -44 57 -57 86
-116 92 -185 9 -98 -43 -175 -178 -263 l-80 -52 33 -25 c126 -97 198 -197 198
-275 0 -57 -40 -137 -101 -201 -50 -53 -145 -122 -155 -113 -2 3 14 36 35 74
22 38 49 98 61 132 20 60 20 67 6 115 -10 31 -33 72 -58 102 l-43 49 -5 -186
c-5 -180 -6 -187 -29 -212 -33 -35 -83 -35 -116 -1 -25 24 -25 25 -25 222 l0
197 -51 -49 c-108 -106 -115 -173 -33 -332 27 -53 51 -101 53 -106 9 -24 -91
43 -144 97 -168 170 -146 305 79 481 l39 31 -66 43 c-81 53 -171 147 -187 197
-24 73 15 188 90 261 l42 41 -78 17 c-352 74 -536 174 -520 283 10 70 74 119
195 150 80 20 437 28 471 10 34 -18 40 -76 10 -103 -19 -17 -44 -20 -208 -26
-129 -4 -198 -11 -222 -21 l-35 -15 50 -25 c28 -14 84 -37 125 -51 89 -30 344
-97 371 -97 19 0 19 9 17 208 l-3 207 -40 6 c-22 3 -50 11 -63 17 -18 10 -31
10 -69 -3 -51 -18 -97 -14 -146 12 -27 13 -35 13 -84 -2 -59 -19 -114 -15
-163 10 -23 12 -35 13 -57 4 -15 -6 -57 -12 -93 -12 -52 -1 -75 4 -115 25 -34
18 -71 28 -117 31 -48 3 -80 12 -112 31 -43 25 -96 78 -96 97 0 5 23 9 51 9
69 0 181 27 259 62 122 55 225 128 381 273 150 139 175 139 275 -6 41 -59 62
-78 100 -96 27 -13 60 -23 74 -23 l25 1 -26 15 c-54 35 -97 132 -83 192 30
125 164 192 274 136z"/>
<path d="M2430 2225 c-67 -34 -92 -66 -97 -122 -4 -39 0 -55 19 -82 23 -35
115 -108 124 -99 2 3 3 77 2 166 l-3 160 -45 -23z"/>
<path d="M2650 2085 l0 -155 40 26 c54 36 80 80 80 137 0 51 -31 96 -89 130
l-31 18 0 -156z"/>
</g>
</svg>
